0, 0, Header, 1, 17, 96
1, 0, Start_track
1, 0, Title_t, "\000"
1, 0, Time_signature, 4, 2, 36, 8
1, 0, Time_signature, 4, 2, 36, 8
1, 0, Time_signature, 4, 2, 36, 8
1, 0, Time_signature, 4, 2, 36, 8
1, 0, End_track
2, 0, Start_track
2, 0, Note_on_c, 0, 42, 127
2, 0, Note_on_c, 0, 49, 127
2, 0, Note_on_c, 0, 54, 127
2, 144, Note_off_c, 0, 42, 64
2, 144, Note_off_c, 0, 49, 64
2, 144, Note_off_c, 0, 54, 64
2, 144, Note_on_c, 0, 44, 127
2, 144, Note_on_c, 0, 51, 127
2, 144, Note_on_c, 0, 56, 127
2, 240, Note_off_c, 0, 44, 64
2, 240, Note_on_c, 0, 44, 127
2, 288, Note_off_c, 0, 44, 64
2, 288, Note_off_c, 0, 51, 64
2, 288, Note_off_c, 0, 56, 64
2, 288, Note_on_c, 0, 44, 127
2, 288, Note_on_c, 0, 51, 127
2, 288, Note_on_c, 0, 56, 127
2, 336, Note_off_c, 0, 44, 64
2, 336, Note_on_c, 0, 44, 127
2, 384, Note_off_c, 0, 44, 64
2, 384, Note_off_c, 0, 51, 64
2, 384, Note_off_c, 0, 56, 64
2, 384, Note_on_c, 0, 44, 127
2, 384, Note_on_c, 0, 51, 127
2, 384, Note_on_c, 0, 56, 127
2, 528, Note_off_c, 0, 44, 64
2, 528, Note_off_c, 0, 51, 64
2, 528, Note_off_c, 0, 56, 64
2, 528, Note_on_c, 0, 46, 127
2, 528, Note_on_c, 0, 53, 127
2, 528, Note_on_c, 0, 58, 127
2, 624, Note_off_c, 0, 46, 64
2, 624, Note_on_c, 0, 46, 127
2, 672, Note_off_c, 0, 46, 64
2, 672, Note_off_c, 0, 53, 64
2, 672, Note_off_c, 0, 58, 64
2, 672, Note_on_c, 0, 46, 127
2, 672, Note_on_c, 0, 53, 127
2, 672, Note_on_c, 0, 58, 127
2, 720, Note_off_c, 0, 46, 64
2, 720, Note_on_c, 0, 46, 127
2, 768, Note_off_c, 0, 46, 64
2, 768, Note_off_c, 0, 53, 64
2, 768, Note_off_c, 0, 58, 64
2, 768, Note_on_c, 0, 42, 127
2, 768, Note_on_c, 0, 49, 127
2, 768, Note_on_c, 0, 54, 127
2, 912, Note_off_c, 0, 42, 64
2, 912, Note_off_c, 0, 49, 64
2, 912, Note_off_c, 0, 54, 64
2, 912, Note_on_c, 0, 44, 127
2, 912, Note_on_c, 0, 51, 127
2, 912, Note_on_c, 0, 56, 127
2, 1008, Note_off_c, 0, 44, 64
2, 1008, Note_on_c, 0, 44, 127
2, 1056, Note_off_c, 0, 44, 64
2, 1056, Note_off_c, 0, 51, 64
2, 1056, Note_off_c, 0, 56, 64
2, 1056, Note_on_c, 0, 44, 127
2, 1056, Note_on_c, 0, 51, 127
2, 1056, Note_on_c, 0, 56, 127
2, 1104, Note_off_c, 0, 44, 64
2, 1104, Note_on_c, 0, 44, 127
2, 1152, Note_off_c, 0, 44, 64
2, 1152, Note_off_c, 0, 51, 64
2, 1152, Note_off_c, 0, 56, 64
2, 1152, Note_on_c, 0, 41, 127
2, 1152, Note_on_c, 0, 48, 127
2, 1152, Note_on_c, 0, 53, 127
2, 1296, Note_off_c, 0, 41, 64
2, 1296, Note_off_c, 0, 48, 64
2, 1296, Note_off_c, 0, 53, 64
2, 1296, Note_on_c, 0, 46, 127
2, 1296, Note_on_c, 0, 53, 127
2, 1296, Note_on_c, 0, 58, 127
2, 1536, Note_off_c, 0, 46, 64
2, 1536, Note_off_c, 0, 53, 64
2, 1536, Note_off_c, 0, 58, 64
2, 1536, Note_on_c, 0, 42, 127
2, 1536, Note_on_c, 0, 49, 127
2, 1536, Note_on_c, 0, 54, 127
2, 1680, Note_off_c, 0, 42, 64
2, 1680, Note_off_c, 0, 49, 64
2, 1680, Note_off_c, 0, 54, 64
2, 1680, Note_on_c, 0, 44, 127
2, 1680, Note_on_c, 0, 51, 127
2, 1680, Note_on_c, 0, 56, 127
2, 1776, Note_off_c, 0, 44, 64
2, 1776, Note_on_c, 0, 44, 127
2, 1824, Note_off_c, 0, 44, 64
2, 1824, Note_off_c, 0, 51, 64
2, 1824, Note_off_c, 0, 56, 64
2, 1824, Note_on_c, 0, 44, 127
2, 1824, Note_on_c, 0, 51, 127
2, 1824, Note_on_c, 0, 56, 127
2, 1872, Note_off_c, 0, 44, 64
2, 1872, Note_on_c, 0, 44, 127
2, 1920, Note_off_c, 0, 44, 64
2, 1920, Note_off_c, 0, 51, 64
2, 1920, Note_off_c, 0, 56, 64
2, 1920, Note_on_c, 0, 44, 127
2, 1920, Note_on_c, 0, 51, 127
2, 1920, Note_on_c, 0, 56, 127
2, 2064, Note_off_c, 0, 44, 64
2, 2064, Note_off_c, 0, 51, 64
2, 2064, Note_off_c, 0, 56, 64
2, 2064, Note_on_c, 0, 46, 127
2, 2064, Note_on_c, 0, 53, 127
2, 2064, Note_on_c, 0, 58, 127
2, 2160, Note_off_c, 0, 46, 64
2, 2160, Note_on_c, 0, 46, 127
2, 2208, Note_off_c, 0, 46, 64
2, 2208, Note_off_c, 0, 53, 64
2, 2208, Note_off_c, 0, 58, 64
2, 2208, Note_on_c, 0, 46, 127
2, 2208, Note_on_c, 0, 53, 127
2, 2208, Note_on_c, 0, 58, 127
2, 2256, Note_off_c, 0, 46, 64
2, 2256, Note_on_c, 0, 46, 127
2, 2304, Note_off_c, 0, 46, 64
2, 2304, Note_off_c, 0, 53, 64
2, 2304, Note_off_c, 0, 58, 64
2, 2304, Note_on_c, 0, 42, 127
2, 2304, Note_on_c, 0, 49, 127
2, 2304, Note_on_c, 0, 54, 127
2, 2448, Note_off_c, 0, 42, 64
2, 2448, Note_off_c, 0, 49, 64
2, 2448, Note_off_c, 0, 54, 64
2, 2448, Note_on_c, 0, 44, 127
2, 2448, Note_on_c, 0, 51, 127
2, 2448, Note_on_c, 0, 56, 127
2, 2544, Note_off_c, 0, 44, 64
2, 2544, Note_on_c, 0, 44, 127
2, 2592, Note_off_c, 0, 44, 64
2, 2592, Note_off_c, 0, 51, 64
2, 2592, Note_off_c, 0, 56, 64
2, 2592, Note_on_c, 0, 44, 127
2, 2592, Note_on_c, 0, 51, 127
2, 2592, Note_on_c, 0, 56, 127
2, 2640, Note_off_c, 0, 44, 64
2, 2640, Note_on_c, 0, 44, 127
2, 2688, Note_off_c, 0, 44, 64
2, 2688, Note_off_c, 0, 51, 64
2, 2688, Note_off_c, 0, 56, 64
2, 2688, Note_on_c, 0, 41, 127
2, 2688, Note_on_c, 0, 48, 127
2, 2688, Note_on_c, 0, 53, 127
2, 2832, Note_off_c, 0, 41, 64
2, 2832, Note_off_c, 0, 48, 64
2, 2832, Note_off_c, 0, 53, 64
2, 2832, Note_on_c, 0, 46, 127
2, 2832, Note_on_c, 0, 53, 127
2, 2832, Note_on_c, 0, 58, 127
2, 3072, Note_off_c, 0, 46, 64
2, 3072, Note_off_c, 0, 53, 64
2, 3072, Note_off_c, 0, 58, 64
2, 3072, Note_on_c, 0, 42, 127
2, 3072, Note_on_c, 0, 54, 127
2, 3168, Note_off_c, 0, 42, 64
2, 3168, Note_off_c, 0, 54, 64
2, 3168, Note_on_c, 0, 42, 127
2, 3168, Note_on_c, 0, 54, 127
2, 3264, Note_off_c, 0, 42, 64
2, 3264, Note_off_c, 0, 54, 64
2, 3264, Note_on_c, 0, 42, 127
2, 3264, Note_on_c, 0, 54, 127
2, 3360, Note_off_c, 0, 42, 64
2, 3360, Note_off_c, 0, 54, 64
2, 3360, Note_on_c, 0, 42, 127
2, 3360, Note_on_c, 0, 54, 127
2, 3408, Note_off_c, 0, 42, 64
2, 3408, Note_off_c, 0, 54, 64
2, 3408, Note_on_c, 0, 44, 127
2, 3408, Note_on_c, 0, 56, 127
2, 3456, Note_off_c, 0, 44, 64
2, 3456, Note_off_c, 0, 56, 64
2, 3456, Note_on_c, 0, 44, 127
2, 3456, Note_on_c, 0, 56, 127
2, 3600, Note_off_c, 0, 44, 64
2, 3600, Note_off_c, 0, 56, 64
2, 3600, Note_on_c, 0, 44, 127
2, 3600, Note_on_c, 0, 56, 127
2, 3648, Note_off_c, 0, 44, 64
2, 3648, Note_off_c, 0, 56, 64
2, 3648, Note_on_c, 0, 44, 127
2, 3648, Note_on_c, 0, 56, 127
2, 3744, Note_off_c, 0, 44, 64
2, 3744, Note_off_c, 0, 56, 64
2, 3744, Note_on_c, 0, 44, 127
2, 3744, Note_on_c, 0, 56, 127
2, 3840, Note_off_c, 0, 44, 64
2, 3840, Note_off_c, 0, 56, 64
2, 3840, Note_on_c, 0, 42, 127
2, 3840, Note_on_c, 0, 54, 127
2, 3936, Note_off_c, 0, 42, 64
2, 3936, Note_off_c, 0, 54, 64
2, 3936, Note_on_c, 0, 42, 127
2, 3936, Note_on_c, 0, 54, 127
2, 4032, Note_off_c, 0, 42, 64
2, 4032, Note_off_c, 0, 54, 64
2, 4032, Note_on_c, 0, 42, 127
2, 4032, Note_on_c, 0, 54, 127
2, 4128, Note_off_c, 0, 42, 64
2, 4128, Note_off_c, 0, 54, 64
2, 4128, Note_on_c, 0, 42, 127
2, 4128, Note_on_c, 0, 54, 127
2, 4224, Note_off_c, 0, 42, 64
2, 4224, Note_off_c, 0, 54, 64
2, 4224, Note_on_c, 0, 44, 127
2, 4224, Note_on_c, 0, 56, 127
2, 4272, Note_off_c, 0, 44, 64
2, 4272, Note_off_c, 0, 56, 64
2, 4368, Note_on_c, 0, 44, 127
2, 4368, Note_on_c, 0, 51, 127
2, 4368, Note_on_c, 0, 56, 127
2, 4608, Note_off_c, 0, 44, 64
2, 4608, Note_off_c, 0, 51, 64
2, 4608, Note_off_c, 0, 56, 64
2, 4608, Note_on_c, 0, 42, 127
2, 4608, Note_on_c, 0, 54, 127
2, 4704, Note_off_c, 0, 42, 64
2, 4704, Note_off_c, 0, 54, 64
2, 4704, Note_on_c, 0, 42, 127
2, 4704, Note_on_c, 0, 54, 127
2, 4800, Note_off_c, 0, 42, 64
2, 4800, Note_off_c, 0, 54, 64
2, 4800, Note_on_c, 0, 42, 127
2, 4800, Note_on_c, 0, 54, 127
2, 4896, Note_off_c, 0, 42, 64
2, 4896, Note_off_c, 0, 54, 64
2, 4896, Note_on_c, 0, 42, 127
2, 4896, Note_on_c, 0, 54, 127
2, 4944, Note_off_c, 0, 42, 64
2, 4944, Note_off_c, 0, 54, 64
2, 4944, Note_on_c, 0, 44, 127
2, 4944, Note_on_c, 0, 56, 127
2, 4992, Note_off_c, 0, 44, 64
2, 4992, Note_off_c, 0, 56, 64
2, 4992, Note_on_c, 0, 44, 127
2, 4992, Note_on_c, 0, 56, 127
2, 5136, Note_off_c, 0, 44, 64
2, 5136, Note_off_c, 0, 56, 64
2, 5136, Note_on_c, 0, 44, 127
2, 5136, Note_on_c, 0, 56, 127
2, 5184, Note_off_c, 0, 44, 64
2, 5184, Note_off_c, 0, 56, 64
2, 5184, Note_on_c, 0, 44, 127
2, 5184, Note_on_c, 0, 56, 127
2, 5280, Note_off_c, 0, 44, 64
2, 5280, Note_off_c, 0, 56, 64
2, 5280, Note_on_c, 0, 44, 127
2, 5280, Note_on_c, 0, 56, 127
2, 5376, Note_off_c, 0, 44, 64
2, 5376, Note_off_c, 0, 56, 64
2, 5376, Note_on_c, 0, 42, 127
2, 5376, Note_on_c, 0, 54, 127
2, 5472, Note_off_c, 0, 42, 64
2, 5472, Note_off_c, 0, 54, 64
2, 5472, Note_on_c, 0, 42, 127
2, 5472, Note_on_c, 0, 54, 127
2, 5568, Note_off_c, 0, 42, 64
2, 5568, Note_off_c, 0, 54, 64
2, 5568, Note_on_c, 0, 51, 127
2, 5760, Note_off_c, 0, 51, 64
2, 5760, Note_on_c, 0, 44, 127
2, 5760, Note_on_c, 0, 56, 127
2, 6048, Note_off_c, 0, 44, 64
2, 6048, Note_off_c, 0, 56, 64
2, 6048, Note_on_c, 0, 56, 127
2, 6144, Note_off_c, 0, 56, 64
2, 6144, Note_on_c, 0, 54, 127
2, 6192, Note_off_c, 0, 54, 64
2, 6192, Note_on_c, 0, 42, 127
2, 6240, Note_off_c, 0, 42, 64
2, 6240, Note_on_c, 0, 54, 127
2, 6288, Note_off_c, 0, 54, 64
2, 6288, Note_on_c, 0, 42, 127
2, 6336, Note_off_c, 0, 42, 64
2, 6336, Note_on_c, 0, 54, 127
2, 6384, Note_off_c, 0, 54, 64
2, 6384, Note_on_c, 0, 42, 127
2, 6432, Note_off_c, 0, 42, 64
2, 6432, Note_on_c, 0, 54, 127
2, 6480, Note_off_c, 0, 54, 64
2, 6480, Note_on_c, 0, 44, 127
2, 6528, Note_off_c, 0, 44, 64
2, 6528, Note_on_c, 0, 56, 127
2, 6576, Note_off_c, 0, 56, 64
2, 6576, Note_on_c, 0, 44, 127
2, 6624, Note_off_c, 0, 44, 64
2, 6624, Note_on_c, 0, 56, 127
2, 6672, Note_off_c, 0, 56, 64
2, 6672, Note_on_c, 0, 44, 127
2, 6720, Note_off_c, 0, 44, 64
2, 6720, Note_on_c, 0, 56, 127
2, 6768, Note_off_c, 0, 56, 64
2, 6768, Note_on_c, 0, 44, 127
2, 6816, Note_off_c, 0, 44, 64
2, 6816, Note_on_c, 0, 56, 127
2, 6864, Note_off_c, 0, 56, 64
2, 6864, Note_on_c, 0, 44, 127
2, 6912, Note_off_c, 0, 44, 64
2, 6912, Note_on_c, 0, 54, 127
2, 6960, Note_off_c, 0, 54, 64
2, 6960, Note_on_c, 0, 42, 127
2, 7008, Note_off_c, 0, 42, 64
2, 7008, Note_on_c, 0, 54, 127
2, 7056, Note_off_c, 0, 54, 64
2, 7056, Note_on_c, 0, 42, 127
2, 7104, Note_off_c, 0, 42, 64
2, 7104, Note_on_c, 0, 63, 127
2, 7152, Note_off_c, 0, 63, 64
2, 7152, Note_on_c, 0, 51, 127
2, 7200, Note_off_c, 0, 51, 64
2, 7200, Note_on_c, 0, 63, 127
2, 7248, Note_off_c, 0, 63, 64
2, 7248, Note_on_c, 0, 51, 127
2, 7296, Note_off_c, 0, 51, 64
2, 7296, Note_on_c, 0, 44, 127
2, 7296, Note_on_c, 0, 56, 127
2, 7344, Note_off_c, 0, 44, 64
2, 7344, Note_off_c, 0, 56, 64
2, 7440, Note_on_c, 0, 44, 127
2, 7440, Note_on_c, 0, 51, 127
2, 7440, Note_on_c, 0, 56, 127
2, 7680, Note_off_c, 0, 44, 64
2, 7680, Note_off_c, 0, 51, 64
2, 7680, Note_off_c, 0, 56, 64
2, 7680, Note_on_c, 0, 54, 127
2, 7680, Note_on_c, 0, 58, 127
2, 7680, Note_on_c, 0, 61, 127
2, 7752, Note_off_c, 0, 54, 64
2, 7752, Note_off_c, 0, 58, 64
2, 7752, Note_off_c, 0, 61, 64
2, 7752, Note_on_c, 0, 54, 127
2, 7752, Note_on_c, 0, 58, 127
2, 7752, Note_on_c, 0, 61, 127
2, 7824, Note_off_c, 0, 54, 64
2, 7824, Note_off_c, 0, 58, 64
2, 7824, Note_off_c, 0, 61, 64
2, 7824, Note_on_c, 0, 56, 127
2, 7824, Note_on_c, 0, 60, 127
2, 7824, Note_on_c, 0, 63, 127
2, 7896, Note_off_c, 0, 56, 64
2, 7896, Note_off_c, 0, 60, 64
2, 7896, Note_off_c, 0, 63, 64
2, 8064, Note_on_c, 0, 53, 127
2, 8064, Note_on_c, 0, 56, 127
2, 8064, Note_on_c, 0, 60, 127
2, 8136, Note_off_c, 0, 53, 64
2, 8136, Note_off_c, 0, 56, 64
2, 8136, Note_off_c, 0, 60, 64
2, 8136, Note_on_c, 0, 53, 127
2, 8136, Note_on_c, 0, 56, 127
2, 8136, Note_on_c, 0, 60, 127
2, 8208, Note_off_c, 0, 53, 64
2, 8208, Note_off_c, 0, 56, 64
2, 8208, Note_off_c, 0, 60, 64
2, 8208, Note_on_c, 0, 58, 127
2, 8208, Note_on_c, 0, 61, 127
2, 8208, Note_on_c, 0, 65, 127
2, 8280, Note_off_c, 0, 58, 64
2, 8280, Note_off_c, 0, 61, 64
2, 8280, Note_off_c, 0, 65, 64
2, 8448, Note_on_c, 0, 51, 127
2, 8448, Note_on_c, 0, 54, 127
2, 8448, Note_on_c, 0, 58, 127
2, 8544, Note_off_c, 0, 51, 64
2, 8544, Note_off_c, 0, 54, 64
2, 8544, Note_off_c, 0, 58, 64
2, 8544, Note_on_c, 0, 51, 127
2, 8592, Note_off_c, 0, 51, 64
2, 8592, Note_on_c, 0, 51, 127
2, 8592, Note_on_c, 0, 56, 127
2, 8592, Note_on_c, 0, 60, 127
2, 8664, Note_off_c, 0, 51, 64
2, 8664, Note_off_c, 0, 56, 64
2, 8664, Note_off_c, 0, 60, 64
2, 8688, Note_on_c, 0, 51, 127
2, 8688, Note_on_c, 0, 56, 127
2, 8688, Note_on_c, 0, 60, 127
2, 8760, Note_off_c, 0, 51, 64
2, 8760, Note_off_c, 0, 56, 64
2, 8760, Note_off_c, 0, 60, 64
2, 8832, Note_on_c, 0, 60, 127
2, 8832, Note_on_c, 0, 65, 127
2, 8928, Note_off_c, 0, 60, 64
2, 8928, Note_off_c, 0, 65, 64
2, 8928, Note_on_c, 0, 53, 127
2, 8928, Note_on_c, 0, 58, 127
2, 8928, Note_on_c, 0, 61, 127
2, 8928, Note_on_c, 0, 65, 127
2, 9120, Note_off_c, 0, 53, 64
2, 9120, Note_off_c, 0, 58, 64
2, 9120, Note_off_c, 0, 61, 64
2, 9120, Note_off_c, 0, 65, 64
2, 9216, Note_on_c, 0, 54, 127
2, 9216, Note_on_c, 0, 58, 127
2, 9216, Note_on_c, 0, 61, 127
2, 9288, Note_off_c, 0, 54, 64
2, 9288, Note_off_c, 0, 58, 64
2, 9288, Note_off_c, 0, 61, 64
2, 9288, Note_on_c, 0, 54, 127
2, 9288, Note_on_c, 0, 58, 127
2, 9288, Note_on_c, 0, 61, 127
2, 9360, Note_off_c, 0, 54, 64
2, 9360, Note_off_c, 0, 58, 64
2, 9360, Note_off_c, 0, 61, 64
2, 9360, Note_on_c, 0, 56, 127
2, 9360, Note_on_c, 0, 60, 127
2, 9360, Note_on_c, 0, 63, 127
2, 9432, Note_off_c, 0, 56, 64
2, 9432, Note_off_c, 0, 60, 64
2, 9432, Note_off_c, 0, 63, 64
2, 9600, Note_on_c, 0, 53, 127
2, 9600, Note_on_c, 0, 56, 127
2, 9600, Note_on_c, 0, 60, 127
2, 9696, Note_off_c, 0, 53, 64
2, 9696, Note_on_c, 0, 53, 127
2, 9744, Note_off_c, 0, 53, 64
2, 9744, Note_off_c, 0, 56, 64
2, 9744, Note_off_c, 0, 60, 64
2, 9744, Note_on_c, 0, 58, 127
2, 9744, Note_on_c, 0, 61, 127
2, 9744, Note_on_c, 0, 65, 127
2, 9816, Note_off_c, 0, 58, 64
2, 9816, Note_off_c, 0, 61, 64
2, 9816, Note_off_c, 0, 65, 64
2, 9984, Note_on_c, 0, 51, 127
2, 9984, Note_on_c, 0, 54, 127
2, 9984, Note_on_c, 0, 58, 127
2, 10080, Note_off_c, 0, 51, 64
2, 10080, Note_off_c, 0, 54, 64
2, 10080, Note_off_c, 0, 58, 64
2, 10080, Note_on_c, 0, 51, 127
2, 10128, Note_off_c, 0, 51, 64
2, 10128, Note_on_c, 0, 51, 127
2, 10128, Note_on_c, 0, 56, 127
2, 10128, Note_on_c, 0, 60, 127
2, 10200, Note_off_c, 0, 51, 64
2, 10200, Note_off_c, 0, 56, 64
2, 10200, Note_off_c, 0, 60, 64
2, 10224, Note_on_c, 0, 51, 127
2, 10224, Note_on_c, 0, 56, 127
2, 10224, Note_on_c, 0, 60, 127
2, 10296, Note_off_c, 0, 51, 64
2, 10296, Note_off_c, 0, 56, 64
2, 10296, Note_off_c, 0, 60, 64
2, 10368, Note_on_c, 0, 60, 127
2, 10368, Note_on_c, 0, 65, 127
2, 10464, Note_off_c, 0, 60, 64
2, 10464, Note_off_c, 0, 65, 64
2, 10464, Note_on_c, 0, 53, 127
2, 10464, Note_on_c, 0, 58, 127
2, 10464, Note_on_c, 0, 61, 127
2, 10464, Note_on_c, 0, 65, 127
2, 10656, Note_off_c, 0, 53, 64
2, 10656, Note_off_c, 0, 58, 64
2, 10656, Note_off_c, 0, 61, 64
2, 10656, Note_off_c, 0, 65, 64
2, 10656, Note_on_c, 0, 53, 127
2, 10656, Note_on_c, 0, 58, 127
2, 10752, Note_off_c, 0, 53, 64
2, 10752, Note_off_c, 0, 58, 64
2, 10752, Note_on_c, 0, 39, 127
2, 10752, Note_on_c, 0, 51, 127
2, 10848, Note_off_c, 0, 39, 64
2, 10848, Note_off_c, 0, 51, 64
2, 10848, Note_on_c, 0, 39, 127
2, 10848, Note_on_c, 0, 51, 127
2, 10944, Note_off_c, 0, 39, 64
2, 10944, Note_off_c, 0, 51, 64
2, 10944, Note_on_c, 0, 39, 127
2, 10944, Note_on_c, 0, 51, 127
2, 11040, Note_off_c, 0, 39, 64
2, 11040, Note_off_c, 0, 51, 64
2, 11040, Note_on_c, 0, 39, 127
2, 11040, Note_on_c, 0, 51, 127
2, 11088, Note_off_c, 0, 39, 64
2, 11088, Note_off_c, 0, 51, 64
2, 11088, Note_on_c, 0, 41, 127
2, 11088, Note_on_c, 0, 53, 127
2, 11136, Note_off_c, 0, 41, 64
2, 11136, Note_off_c, 0, 53, 64
2, 11136, Note_on_c, 0, 41, 127
2, 11136, Note_on_c, 0, 53, 127
2, 11280, Note_off_c, 0, 41, 64
2, 11280, Note_off_c, 0, 53, 64
2, 11280, Note_on_c, 0, 41, 127
2, 11280, Note_on_c, 0, 53, 127
2, 11328, Note_off_c, 0, 41, 64
2, 11328, Note_off_c, 0, 53, 64
2, 11328, Note_on_c, 0, 41, 127
2, 11328, Note_on_c, 0, 53, 127
2, 11424, Note_off_c, 0, 41, 64
2, 11424, Note_off_c, 0, 53, 64
2, 11424, Note_on_c, 0, 41, 127
2, 11424, Note_on_c, 0, 53, 127
2, 11520, Note_off_c, 0, 41, 64
2, 11520, Note_off_c, 0, 53, 64
2, 11520, Note_on_c, 0, 39, 127
2, 11520, Note_on_c, 0, 51, 127
2, 11616, Note_off_c, 0, 39, 64
2, 11616, Note_off_c, 0, 51, 64
2, 11616, Note_on_c, 0, 39, 127
2, 11616, Note_on_c, 0, 51, 127
2, 11712, Note_off_c, 0, 39, 64
2, 11712, Note_off_c, 0, 51, 64
2, 11712, Note_on_c, 0, 39, 127
2, 11712, Note_on_c, 0, 51, 127
2, 11808, Note_off_c, 0, 39, 64
2, 11808, Note_off_c, 0, 51, 64
2, 11808, Note_on_c, 0, 39, 127
2, 11808, Note_on_c, 0, 51, 127
2, 11904, Note_off_c, 0, 39, 64
2, 11904, Note_off_c, 0, 51, 64
2, 11904, Note_on_c, 0, 41, 127
2, 11904, Note_on_c, 0, 53, 127
2, 11952, Note_off_c, 0, 41, 64
2, 11952, Note_off_c, 0, 53, 64
2, 12048, Note_on_c, 0, 41, 127
2, 12048, Note_on_c, 0, 48, 127
2, 12048, Note_on_c, 0, 53, 127
2, 12288, Note_off_c, 0, 41, 64
2, 12288, Note_off_c, 0, 48, 64
2, 12288, Note_off_c, 0, 53, 64
2, 12288, Note_on_c, 0, 39, 127
2, 12288, Note_on_c, 0, 51, 127
2, 12384, Note_off_c, 0, 39, 64
2, 12384, Note_off_c, 0, 51, 64
2, 12384, Note_on_c, 0, 39, 127
2, 12384, Note_on_c, 0, 51, 127
2, 12480, Note_off_c, 0, 39, 64
2, 12480, Note_off_c, 0, 51, 64
2, 12480, Note_on_c, 0, 39, 127
2, 12480, Note_on_c, 0, 51, 127
2, 12576, Note_off_c, 0, 39, 64
2, 12576, Note_off_c, 0, 51, 64
2, 12576, Note_on_c, 0, 39, 127
2, 12576, Note_on_c, 0, 51, 127
2, 12624, Note_off_c, 0, 39, 64
2, 12624, Note_off_c, 0, 51, 64
2, 12624, Note_on_c, 0, 41, 127
2, 12624, Note_on_c, 0, 53, 127
2, 12672, Note_off_c, 0, 41, 64
2, 12672, Note_off_c, 0, 53, 64
2, 12672, Note_on_c, 0, 41, 127
2, 12672, Note_on_c, 0, 53, 127
2, 12816, Note_off_c, 0, 41, 64
2, 12816, Note_off_c, 0, 53, 64
2, 12816, Note_on_c, 0, 41, 127
2, 12816, Note_on_c, 0, 53, 127
2, 12864, Note_off_c, 0, 41, 64
2, 12864, Note_off_c, 0, 53, 64
2, 12864, Note_on_c, 0, 41, 127
2, 12864, Note_on_c, 0, 53, 127
2, 12960, Note_off_c, 0, 41, 64
2, 12960, Note_off_c, 0, 53, 64
2, 12960, Note_on_c, 0, 41, 127
2, 12960, Note_on_c, 0, 53, 127
2, 13056, Note_off_c, 0, 41, 64
2, 13056, Note_off_c, 0, 53, 64
2, 13056, Note_on_c, 0, 39, 127
2, 13056, Note_on_c, 0, 51, 127
2, 13152, Note_off_c, 0, 39, 64
2, 13152, Note_off_c, 0, 51, 64
2, 13152, Note_on_c, 0, 39, 127
2, 13152, Note_on_c, 0, 51, 127
2, 13248, Note_off_c, 0, 39, 64
2, 13248, Note_off_c, 0, 51, 64
2, 13248, Note_on_c, 0, 48, 127
2, 13440, Note_off_c, 0, 48, 64
2, 13440, Note_on_c, 0, 41, 127
2, 13440, Note_on_c, 0, 53, 127
2, 13728, Note_off_c, 0, 41, 64
2, 13728, Note_off_c, 0, 53, 64
2, 13728, Note_on_c, 0, 53, 127
2, 13824, Note_off_c, 0, 53, 64
2, 13824, Note_on_c, 0, 54, 127
2, 13872, Note_off_c, 0, 54, 64
2, 13872, Note_on_c, 0, 42, 127
2, 13920, Note_off_c, 0, 42, 64
2, 13920, Note_on_c, 0, 54, 127
2, 13968, Note_off_c, 0, 54, 64
2, 13968, Note_on_c, 0, 42, 127
2, 14016, Note_off_c, 0, 42, 64
2, 14016, Note_on_c, 0, 54, 127
2, 14064, Note_off_c, 0, 54, 64
2, 14064, Note_on_c, 0, 42, 127
2, 14112, Note_off_c, 0, 42, 64
2, 14112, Note_on_c, 0, 54, 127
2, 14160, Note_off_c, 0, 54, 64
2, 14160, Note_on_c, 0, 44, 127
2, 14208, Note_off_c, 0, 44, 64
2, 14208, Note_on_c, 0, 56, 127
2, 14256, Note_off_c, 0, 56, 64
2, 14256, Note_on_c, 0, 44, 127
2, 14304, Note_off_c, 0, 44, 64
2, 14304, Note_on_c, 0, 56, 127
2, 14352, Note_off_c, 0, 56, 64
2, 14352, Note_on_c, 0, 44, 127
2, 14400, Note_off_c, 0, 44, 64
2, 14400, Note_on_c, 0, 56, 127
2, 14448, Note_off_c, 0, 56, 64
2, 14448, Note_on_c, 0, 44, 127
2, 14496, Note_off_c, 0, 44, 64
2, 14496, Note_on_c, 0, 56, 127
2, 14544, Note_off_c, 0, 56, 64
2, 14544, Note_on_c, 0, 44, 127
2, 14592, Note_off_c, 0, 44, 64
2, 14592, Note_on_c, 0, 54, 127
2, 14640, Note_off_c, 0, 54, 64
2, 14640, Note_on_c, 0, 42, 127
2, 14688, Note_off_c, 0, 42, 64
2, 14688, Note_on_c, 0, 54, 127
2, 14736, Note_off_c, 0, 54, 64
2, 14736, Note_on_c, 0, 42, 127
2, 14784, Note_off_c, 0, 42, 64
2, 14784, Note_on_c, 0, 63, 127
2, 14832, Note_off_c, 0, 63, 64
2, 14832, Note_on_c, 0, 51, 127
2, 14880, Note_off_c, 0, 51, 64
2, 14880, Note_on_c, 0, 63, 127
2, 14928, Note_off_c, 0, 63, 64
2, 14928, Note_on_c, 0, 51, 127
2, 14976, Note_off_c, 0, 51, 64
2, 14976, Note_on_c, 0, 44, 127
2, 14976, Note_on_c, 0, 56, 127
2, 15024, Note_off_c, 0, 44, 64
2, 15024, Note_off_c, 0, 56, 64
2, 15120, Note_on_c, 0, 44, 127
2, 15120, Note_on_c, 0, 51, 127
2, 15120, Note_on_c, 0, 56, 127
2, 15360, Note_off_c, 0, 44, 64
2, 15360, Note_off_c, 0, 51, 64
2, 15360, Note_off_c, 0, 56, 64
2, 15360, Note_on_c, 0, 54, 127
2, 15360, Note_on_c, 0, 58, 127
2, 15360, Note_on_c, 0, 61, 127
2, 15432, Note_off_c, 0, 54, 64
2, 15432, Note_off_c, 0, 58, 64
2, 15432, Note_off_c, 0, 61, 64
2, 15432, Note_on_c, 0, 54, 127
2, 15432, Note_on_c, 0, 58, 127
2, 15432, Note_on_c, 0, 61, 127
2, 15504, Note_off_c, 0, 54, 64
2, 15504, Note_off_c, 0, 58, 64
2, 15504, Note_off_c, 0, 61, 64
2, 15504, Note_on_c, 0, 56, 127
2, 15504, Note_on_c, 0, 60, 127
2, 15504, Note_on_c, 0, 63, 127
2, 15576, Note_off_c, 0, 56, 64
2, 15576, Note_off_c, 0, 60, 64
2, 15576, Note_off_c, 0, 63, 64
2, 15744, Note_on_c, 0, 53, 127
2, 15744, Note_on_c, 0, 56, 127
2, 15744, Note_on_c, 0, 60, 127
2, 15816, Note_off_c, 0, 53, 64
2, 15816, Note_off_c, 0, 56, 64
2, 15816, Note_off_c, 0, 60, 64
2, 15816, Note_on_c, 0, 53, 127
2, 15816, Note_on_c, 0, 56, 127
2, 15816, Note_on_c, 0, 60, 127
2, 15888, Note_off_c, 0, 53, 64
2, 15888, Note_off_c, 0, 56, 64
2, 15888, Note_off_c, 0, 60, 64
2, 15888, Note_on_c, 0, 58, 127
2, 15888, Note_on_c, 0, 61, 127
2, 15888, Note_on_c, 0, 65, 127
2, 15960, Note_off_c, 0, 58, 64
2, 15960, Note_off_c, 0, 61, 64
2, 15960, Note_off_c, 0, 65, 64
2, 16128, Note_on_c, 0, 51, 127
2, 16128, Note_on_c, 0, 54, 127
2, 16128, Note_on_c, 0, 58, 127
2, 16224, Note_off_c, 0, 51, 64
2, 16224, Note_off_c, 0, 54, 64
2, 16224, Note_off_c, 0, 58, 64
2, 16224, Note_on_c, 0, 51, 127
2, 16272, Note_off_c, 0, 51, 64
2, 16272, Note_on_c, 0, 51, 127
2, 16272, Note_on_c, 0, 56, 127
2, 16272, Note_on_c, 0, 60, 127
2, 16344, Note_off_c, 0, 51, 64
2, 16344, Note_off_c, 0, 56, 64
2, 16344, Note_off_c, 0, 60, 64
2, 16368, Note_on_c, 0, 51, 127
2, 16368, Note_on_c, 0, 56, 127
2, 16368, Note_on_c, 0, 60, 127
2, 16440, Note_off_c, 0, 51, 64
2, 16440, Note_off_c, 0, 56, 64
2, 16440, Note_off_c, 0, 60, 64
2, 16512, Note_on_c, 0, 60, 127
2, 16512, Note_on_c, 0, 65, 127
2, 16608, Note_off_c, 0, 60, 64
2, 16608, Note_off_c, 0, 65, 64
2, 16608, Note_on_c, 0, 53, 127
2, 16608, Note_on_c, 0, 58, 127
2, 16608, Note_on_c, 0, 61, 127
2, 16608, Note_on_c, 0, 65, 127
2, 16800, Note_off_c, 0, 53, 64
2, 16800, Note_off_c, 0, 58, 64
2, 16800, Note_off_c, 0, 61, 64
2, 16800, Note_off_c, 0, 65, 64
2, 16896, Note_on_c, 0, 54, 127
2, 16896, Note_on_c, 0, 58, 127
2, 16896, Note_on_c, 0, 61, 127
2, 16968, Note_off_c, 0, 54, 64
2, 16968, Note_off_c, 0, 58, 64
2, 16968, Note_off_c, 0, 61, 64
2, 16968, Note_on_c, 0, 54, 127
2, 16968, Note_on_c, 0, 58, 127
2, 16968, Note_on_c, 0, 61, 127
2, 17040, Note_off_c, 0, 54, 64
2, 17040, Note_off_c, 0, 58, 64
2, 17040, Note_off_c, 0, 61, 64
2, 17040, Note_on_c, 0, 56, 127
2, 17040, Note_on_c, 0, 60, 127
2, 17040, Note_on_c, 0, 63, 127
2, 17112, Note_off_c, 0, 56, 64
2, 17112, Note_off_c, 0, 60, 64
2, 17112, Note_off_c, 0, 63, 64
2, 17280, Note_on_c, 0, 53, 127
2, 17280, Note_on_c, 0, 56, 127
2, 17280, Note_on_c, 0, 60, 127
2, 17376, Note_off_c, 0, 53, 64
2, 17376, Note_on_c, 0, 53, 127
2, 17424, Note_off_c, 0, 53, 64
2, 17424, Note_off_c, 0, 56, 64
2, 17424, Note_off_c, 0, 60, 64
2, 17424, Note_on_c, 0, 58, 127
2, 17424, Note_on_c, 0, 61, 127
2, 17424, Note_on_c, 0, 65, 127
2, 17496, Note_off_c, 0, 58, 64
2, 17496, Note_off_c, 0, 61, 64
2, 17496, Note_off_c, 0, 65, 64
2, 17664, Note_on_c, 0, 51, 127
2, 17664, Note_on_c, 0, 54, 127
2, 17664, Note_on_c, 0, 58, 127
2, 17760, Note_off_c, 0, 51, 64
2, 17760, Note_off_c, 0, 54, 64
2, 17760, Note_off_c, 0, 58, 64
2, 17760, Note_on_c, 0, 51, 127
2, 17808, Note_off_c, 0, 51, 64
2, 17808, Note_on_c, 0, 51, 127
2, 17808, Note_on_c, 0, 56, 127
2, 17808, Note_on_c, 0, 60, 127
2, 17880, Note_off_c, 0, 51, 64
2, 17880, Note_off_c, 0, 56, 64
2, 17880, Note_off_c, 0, 60, 64
2, 17904, Note_on_c, 0, 51, 127
2, 17904, Note_on_c, 0, 56, 127
2, 17904, Note_on_c, 0, 60, 127
2, 17976, Note_off_c, 0, 51, 64
2, 17976, Note_off_c, 0, 56, 64
2, 17976, Note_off_c, 0, 60, 64
2, 18048, Note_on_c, 0, 60, 127
2, 18048, Note_on_c, 0, 65, 127
2, 18144, Note_off_c, 0, 60, 64
2, 18144, Note_off_c, 0, 65, 64
2, 18144, Note_on_c, 0, 53, 127
2, 18144, Note_on_c, 0, 58, 127
2, 18144, Note_on_c, 0, 61, 127
2, 18144, Note_on_c, 0, 65, 127
2, 18336, Note_off_c, 0, 53, 64
2, 18336, Note_off_c, 0, 58, 64
2, 18336, Note_off_c, 0, 61, 64
2, 18336, Note_off_c, 0, 65, 64
2, 18432, Note_on_c, 0, 54, 127
2, 18432, Note_on_c, 0, 58, 127
2, 18432, Note_on_c, 0, 61, 127
2, 18504, Note_off_c, 0, 54, 64
2, 18504, Note_off_c, 0, 58, 64
2, 18504, Note_off_c, 0, 61, 64
2, 18504, Note_on_c, 0, 54, 127
2, 18504, Note_on_c, 0, 58, 127
2, 18504, Note_on_c, 0, 61, 127
2, 18576, Note_off_c, 0, 54, 64
2, 18576, Note_off_c, 0, 58, 64
2, 18576, Note_off_c, 0, 61, 64
2, 18576, Note_on_c, 0, 56, 127
2, 18576, Note_on_c, 0, 60, 127
2, 18576, Note_on_c, 0, 63, 127
2, 18648, Note_off_c, 0, 56, 64
2, 18648, Note_off_c, 0, 60, 64
2, 18648, Note_off_c, 0, 63, 64
2, 18816, Note_on_c, 0, 53, 127
2, 18816, Note_on_c, 0, 56, 127
2, 18816, Note_on_c, 0, 60, 127
2, 18888, Note_off_c, 0, 53, 64
2, 18888, Note_off_c, 0, 56, 64
2, 18888, Note_off_c, 0, 60, 64
2, 18888, Note_on_c, 0, 53, 127
2, 18888, Note_on_c, 0, 56, 127
2, 18888, Note_on_c, 0, 60, 127
2, 18960, Note_off_c, 0, 53, 64
2, 18960, Note_off_c, 0, 56, 64
2, 18960, Note_off_c, 0, 60, 64
2, 18960, Note_on_c, 0, 58, 127
2, 18960, Note_on_c, 0, 61, 127
2, 18960, Note_on_c, 0, 65, 127
2, 19032, Note_off_c, 0, 58, 64
2, 19032, Note_off_c, 0, 61, 64
2, 19032, Note_off_c, 0, 65, 64
2, 19200, Note_on_c, 0, 51, 127
2, 19200, Note_on_c, 0, 54, 127
2, 19200, Note_on_c, 0, 58, 127
2, 19296, Note_off_c, 0, 51, 64
2, 19296, Note_off_c, 0, 54, 64
2, 19296, Note_off_c, 0, 58, 64
2, 19296, Note_on_c, 0, 51, 127
2, 19344, Note_off_c, 0, 51, 64
2, 19344, Note_on_c, 0, 51, 127
2, 19344, Note_on_c, 0, 56, 127
2, 19344, Note_on_c, 0, 60, 127
2, 19416, Note_off_c, 0, 51, 64
2, 19416, Note_off_c, 0, 56, 64
2, 19416, Note_off_c, 0, 60, 64
2, 19440, Note_on_c, 0, 51, 127
2, 19440, Note_on_c, 0, 56, 127
2, 19440, Note_on_c, 0, 60, 127
2, 19512, Note_off_c, 0, 51, 64
2, 19512, Note_off_c, 0, 56, 64
2, 19512, Note_off_c, 0, 60, 64
2, 19584, Note_on_c, 0, 60, 127
2, 19584, Note_on_c, 0, 65, 127
2, 19680, Note_off_c, 0, 60, 64
2, 19680, Note_off_c, 0, 65, 64
2, 19680, Note_on_c, 0, 53, 127
2, 19680, Note_on_c, 0, 58, 127
2, 19680, Note_on_c, 0, 61, 127
2, 19680, Note_on_c, 0, 65, 127
2, 19872, Note_off_c, 0, 53, 64
2, 19872, Note_off_c, 0, 58, 64
2, 19872, Note_off_c, 0, 61, 64
2, 19872, Note_off_c, 0, 65, 64
2, 19968, Note_on_c, 0, 54, 127
2, 19968, Note_on_c, 0, 58, 127
2, 19968, Note_on_c, 0, 61, 127
2, 20040, Note_off_c, 0, 54, 64
2, 20040, Note_off_c, 0, 58, 64
2, 20040, Note_off_c, 0, 61, 64
2, 20040, Note_on_c, 0, 54, 127
2, 20040, Note_on_c, 0, 58, 127
2, 20040, Note_on_c, 0, 61, 127
2, 20112, Note_off_c, 0, 54, 64
2, 20112, Note_off_c, 0, 58, 64
2, 20112, Note_off_c, 0, 61, 64
2, 20112, Note_on_c, 0, 56, 127
2, 20112, Note_on_c, 0, 60, 127
2, 20112, Note_on_c, 0, 63, 127
2, 20184, Note_off_c, 0, 56, 64
2, 20184, Note_off_c, 0, 60, 64
2, 20184, Note_off_c, 0, 63, 64
2, 20352, Note_on_c, 0, 53, 127
2, 20352, Note_on_c, 0, 56, 127
2, 20352, Note_on_c, 0, 60, 127
2, 20448, Note_off_c, 0, 53, 64
2, 20448, Note_on_c, 0, 53, 127
2, 20496, Note_off_c, 0, 53, 64
2, 20496, Note_off_c, 0, 56, 64
2, 20496, Note_off_c, 0, 60, 64
2, 20496, Note_on_c, 0, 58, 127
2, 20496, Note_on_c, 0, 61, 127
2, 20496, Note_on_c, 0, 65, 127
2, 20568, Note_off_c, 0, 58, 64
2, 20568, Note_off_c, 0, 61, 64
2, 20568, Note_off_c, 0, 65, 64
2, 20736, Note_on_c, 0, 51, 127
2, 20736, Note_on_c, 0, 54, 127
2, 20736, Note_on_c, 0, 58, 127
2, 20832, Note_off_c, 0, 51, 64
2, 20832, Note_off_c, 0, 54, 64
2, 20832, Note_off_c, 0, 58, 64
2, 20832, Note_on_c, 0, 51, 127
2, 20880, Note_off_c, 0, 51, 64
2, 20880, Note_on_c, 0, 51, 127
2, 20880, Note_on_c, 0, 56, 127
2, 20880, Note_on_c, 0, 60, 127
2, 20952, Note_off_c, 0, 51, 64
2, 20952, Note_off_c, 0, 56, 64
2, 20952, Note_off_c, 0, 60, 64
2, 20976, Note_on_c, 0, 51, 127
2, 20976, Note_on_c, 0, 56, 127
2, 20976, Note_on_c, 0, 60, 127
2, 21048, Note_off_c, 0, 51, 64
2, 21048, Note_off_c, 0, 56, 64
2, 21048, Note_off_c, 0, 60, 64
2, 21120, Note_on_c, 0, 60, 127
2, 21120, Note_on_c, 0, 65, 127
2, 21216, Note_off_c, 0, 60, 64
2, 21216, Note_off_c, 0, 65, 64
2, 21216, Note_on_c, 0, 53, 127
2, 21216, Note_on_c, 0, 58, 127
2, 21216, Note_on_c, 0, 61, 127
2, 21216, Note_on_c, 0, 65, 127
2, 21408, Note_off_c, 0, 53, 64
2, 21408, Note_off_c, 0, 58, 64
2, 21408, Note_off_c, 0, 61, 64
2, 21408, Note_off_c, 0, 65, 64
2, 21456, Note_on_c, 0, 34, 127
2, 21480, Note_off_c, 0, 34, 64
2, 21480, Note_on_c, 0, 37, 127
2, 21504, Note_off_c, 0, 37, 64
2, 21504, Note_on_c, 0, 41, 127
2, 21552, Note_off_c, 0, 41, 64
2, 21552, Note_on_c, 0, 37, 127
2, 21576, Note_off_c, 0, 37, 64
2, 21576, Note_on_c, 0, 39, 127
2, 21600, Note_off_c, 0, 39, 64
2, 21600, Note_on_c, 0, 41, 127
2, 21624, Note_off_c, 0, 41, 64
2, 21624, Note_on_c, 0, 42, 127
2, 21648, Note_off_c, 0, 42, 64
2, 21648, Note_on_c, 0, 41, 127
2, 21696, Note_off_c, 0, 41, 64
2, 21696, Note_on_c, 0, 37, 127
2, 21720, Note_off_c, 0, 37, 64
2, 21744, Note_on_c, 0, 39, 127
2, 21768, Note_off_c, 0, 39, 64
2, 21768, Note_on_c, 0, 41, 127
2, 21792, Note_off_c, 0, 41, 64
2, 21840, Note_on_c, 0, 30, 127
2, 21864, Note_off_c, 0, 30, 64
2, 21864, Note_on_c, 0, 32, 127
2, 21888, Note_off_c, 0, 32, 64
2, 21888, Note_on_c, 0, 34, 127
2, 21936, Note_off_c, 0, 34, 64
2, 21936, Note_on_c, 0, 32, 127
2, 21960, Note_off_c, 0, 32, 64
2, 21960, Note_on_c, 0, 34, 127
2, 21984, Note_off_c, 0, 34, 64
2, 22008, Note_on_c, 0, 37, 127
2, 22032, Note_off_c, 0, 37, 64
2, 22032, Note_on_c, 0, 36, 127
2, 22056, Note_off_c, 0, 36, 64
2, 22224, Note_on_c, 0, 34, 127
2, 22248, Note_off_c, 0, 34, 64
2, 22248, Note_on_c, 0, 37, 127
2, 22272, Note_off_c, 0, 37, 64
2, 22272, Note_on_c, 0, 41, 127
2, 22320, Note_off_c, 0, 41, 64
2, 22320, Note_on_c, 0, 37, 127
2, 22344, Note_off_c, 0, 37, 64
2, 22344, Note_on_c, 0, 39, 127
2, 22368, Note_off_c, 0, 39, 64
2, 22368, Note_on_c, 0, 41, 127
2, 22392, Note_off_c, 0, 41, 64
2, 22392, Note_on_c, 0, 42, 127
2, 22416, Note_off_c, 0, 42, 64
2, 22416, Note_on_c, 0, 41, 127
2, 22464, Note_off_c, 0, 41, 64
2, 22464, Note_on_c, 0, 37, 127
2, 22488, Note_off_c, 0, 37, 64
2, 22512, Note_on_c, 0, 39, 127
2, 22536, Note_off_c, 0, 39, 64
2, 22536, Note_on_c, 0, 41, 127
2, 22560, Note_off_c, 0, 41, 64
2, 22608, Note_on_c, 0, 30, 127
2, 22632, Note_off_c, 0, 30, 64
2, 22632, Note_on_c, 0, 32, 127
2, 22656, Note_off_c, 0, 32, 64
2, 22656, Note_on_c, 0, 34, 127
2, 22704, Note_off_c, 0, 34, 64
2, 22704, Note_on_c, 0, 32, 127
2, 22728, Note_off_c, 0, 32, 64
2, 22728, Note_on_c, 0, 34, 127
2, 22752, Note_off_c, 0, 34, 64
2, 22776, Note_on_c, 0, 37, 127
2, 22800, Note_off_c, 0, 37, 64
2, 22800, Note_on_c, 0, 36, 127
2, 22824, Note_off_c, 0, 36, 64
2, 22992, Note_on_c, 0, 34, 127
2, 23016, Note_off_c, 0, 34, 64
2, 23016, Note_on_c, 0, 37, 127
2, 23040, Note_off_c, 0, 37, 64
2, 23040, Note_on_c, 0, 41, 127
2, 23088, Note_off_c, 0, 41, 64
2, 23088, Note_on_c, 0, 37, 127
2, 23112, Note_off_c, 0, 37, 64
2, 23112, Note_on_c, 0, 39, 127
2, 23136, Note_off_c, 0, 39, 64
2, 23136, Note_on_c, 0, 41, 127
2, 23160, Note_off_c, 0, 41, 64
2, 23160, Note_on_c, 0, 42, 127
2, 23184, Note_off_c, 0, 42, 64
2, 23184, Note_on_c, 0, 41, 127
2, 23232, Note_off_c, 0, 41, 64
2, 23232, Note_on_c, 0, 37, 127
2, 23256, Note_off_c, 0, 37, 64
2, 23280, Note_on_c, 0, 39, 127
2, 23304, Note_off_c, 0, 39, 64
2, 23304, Note_on_c, 0, 41, 127
2, 23328, Note_off_c, 0, 41, 64
2, 23376, Note_on_c, 0, 30, 127
2, 23400, Note_off_c, 0, 30, 64
2, 23400, Note_on_c, 0, 32, 127
2, 23424, Note_off_c, 0, 32, 64
2, 23424, Note_on_c, 0, 34, 127
2, 23472, Note_off_c, 0, 34, 64
2, 23472, Note_on_c, 0, 32, 127
2, 23496, Note_off_c, 0, 32, 64
2, 23496, Note_on_c, 0, 34, 127
2, 23520, Note_off_c, 0, 34, 64
2, 23544, Note_on_c, 0, 37, 127
2, 23568, Note_off_c, 0, 37, 64
2, 23568, Note_on_c, 0, 36, 127
2, 23592, Note_off_c, 0, 36, 64
2, 23760, Note_on_c, 0, 34, 127
2, 23784, Note_off_c, 0, 34, 64
2, 23784, Note_on_c, 0, 37, 127
2, 23808, Note_off_c, 0, 37, 64
2, 23808, Note_on_c, 0, 41, 127
2, 23856, Note_off_c, 0, 41, 64
2, 23856, Note_on_c, 0, 37, 127
2, 23880, Note_off_c, 0, 37, 64
2, 23880, Note_on_c, 0, 39, 127
2, 23904, Note_off_c, 0, 39, 64
2, 23904, Note_on_c, 0, 41, 127
2, 23928, Note_off_c, 0, 41, 64
2, 23928, Note_on_c, 0, 42, 127
2, 23952, Note_off_c, 0, 42, 64
2, 23952, Note_on_c, 0, 41, 127
2, 24000, Note_off_c, 0, 41, 64
2, 24000, Note_on_c, 0, 37, 127
2, 24024, Note_off_c, 0, 37, 64
2, 24048, Note_on_c, 0, 39, 127
2, 24072, Note_off_c, 0, 39, 64
2, 24072, Note_on_c, 0, 41, 127
2, 24096, Note_off_c, 0, 41, 64
2, 24144, Note_on_c, 0, 30, 127
2, 24168, Note_off_c, 0, 30, 64
2, 24168, Note_on_c, 0, 32, 127
2, 24192, Note_off_c, 0, 32, 64
2, 24192, Note_on_c, 0, 34, 127
2, 24240, Note_off_c, 0, 34, 64
2, 24240, Note_on_c, 0, 32, 127
2, 24264, Note_off_c, 0, 32, 64
2, 24264, Note_on_c, 0, 34, 127
2, 24288, Note_off_c, 0, 34, 64
2, 24312, Note_on_c, 0, 37, 127
2, 24336, Note_off_c, 0, 37, 64
2, 24336, Note_on_c, 0, 36, 127
2, 24360, Note_off_c, 0, 36, 64
2, 24528, Note_on_c, 0, 34, 127
2, 24552, Note_off_c, 0, 34, 64
2, 24552, Note_on_c, 0, 37, 127
2, 24576, Note_off_c, 0, 37, 64
2, 24576, Note_on_c, 0, 39, 127
2, 24672, Note_off_c, 0, 39, 64
2, 24672, Note_on_c, 0, 51, 127
2, 24672, Note_on_c, 0, 58, 127
2, 24768, Note_off_c, 0, 51, 64
2, 24768, Note_off_c, 0, 58, 64
2, 24768, Note_on_c, 0, 39, 127
2, 24864, Note_off_c, 0, 39, 64
2, 24864, Note_on_c, 0, 51, 127
2, 24864, Note_on_c, 0, 58, 127
2, 24960, Note_off_c, 0, 51, 64
2, 24960, Note_off_c, 0, 58, 64
2, 24960, Note_on_c, 0, 41, 127
2, 25056, Note_off_c, 0, 41, 64
2, 25056, Note_on_c, 0, 53, 127
2, 25056, Note_on_c, 0, 60, 127
2, 25152, Note_off_c, 0, 53, 64
2, 25152, Note_off_c, 0, 60, 64
2, 25152, Note_on_c, 0, 41, 127
2, 25248, Note_off_c, 0, 41, 64
2, 25248, Note_on_c, 0, 53, 127
2, 25248, Note_on_c, 0, 60, 127
2, 25344, Note_off_c, 0, 53, 64
2, 25344, Note_off_c, 0, 60, 64
2, 25344, Note_on_c, 0, 39, 127
2, 25440, Note_off_c, 0, 39, 64
2, 25440, Note_on_c, 0, 51, 127
2, 25440, Note_on_c, 0, 58, 127
2, 25536, Note_off_c, 0, 51, 64
2, 25536, Note_off_c, 0, 58, 64
2, 25536, Note_on_c, 0, 39, 127
2, 25632, Note_off_c, 0, 39, 64
2, 25632, Note_on_c, 0, 51, 127
2, 25632, Note_on_c, 0, 58, 127
2, 25728, Note_off_c, 0, 51, 64
2, 25728, Note_off_c, 0, 58, 64
2, 25728, Note_on_c, 0, 41, 127
2, 25728, Note_on_c, 0, 53, 127
2, 25776, Note_off_c, 0, 41, 64
2, 25776, Note_off_c, 0, 53, 64
2, 25872, Note_on_c, 0, 41, 127
2, 25872, Note_on_c, 0, 48, 127
2, 25872, Note_on_c, 0, 53, 127
2, 26112, Note_off_c, 0, 41, 64
2, 26112, Note_off_c, 0, 48, 64
2, 26112, Note_off_c, 0, 53, 64
2, 26112, Note_on_c, 0, 39, 127
2, 26208, Note_off_c, 0, 39, 64
2, 26208, Note_on_c, 0, 51, 127
2, 26208, Note_on_c, 0, 58, 127
2, 26304, Note_off_c, 0, 51, 64
2, 26304, Note_off_c, 0, 58, 64
2, 26304, Note_on_c, 0, 39, 127
2, 26400, Note_off_c, 0, 39, 64
2, 26400, Note_on_c, 0, 51, 127
2, 26400, Note_on_c, 0, 58, 127
2, 26496, Note_off_c, 0, 51, 64
2, 26496, Note_off_c, 0, 58, 64
2, 26496, Note_on_c, 0, 41, 127
2, 26592, Note_off_c, 0, 41, 64
2, 26592, Note_on_c, 0, 53, 127
2, 26592, Note_on_c, 0, 60, 127
2, 26688, Note_off_c, 0, 53, 64
2, 26688, Note_off_c, 0, 60, 64
2, 26688, Note_on_c, 0, 41, 127
2, 26784, Note_off_c, 0, 41, 64
2, 26784, Note_on_c, 0, 53, 127
2, 26784, Note_on_c, 0, 60, 127
2, 26880, Note_off_c, 0, 53, 64
2, 26880, Note_off_c, 0, 60, 64
2, 26880, Note_on_c, 0, 39, 127
2, 26976, Note_off_c, 0, 39, 64
2, 26976, Note_on_c, 0, 51, 127
2, 26976, Note_on_c, 0, 58, 127
2, 27072, Note_off_c, 0, 51, 64
2, 27072, Note_off_c, 0, 58, 64
2, 27072, Note_on_c, 0, 39, 127
2, 27168, Note_off_c, 0, 39, 64
2, 27168, Note_on_c, 0, 51, 127
2, 27168, Note_on_c, 0, 58, 127
2, 27264, Note_off_c, 0, 51, 64
2, 27264, Note_off_c, 0, 58, 64
2, 27264, Note_on_c, 0, 41, 127
2, 27264, Note_on_c, 0, 53, 127
2, 27552, Note_off_c, 0, 41, 64
2, 27552, Note_off_c, 0, 53, 64
2, 27552, Note_on_c, 0, 53, 127
2, 27648, Note_off_c, 0, 53, 64
2, 27648, Note_on_c, 0, 54, 127
2, 27696, Note_off_c, 0, 54, 64
2, 27696, Note_on_c, 0, 42, 127
2, 27744, Note_off_c, 0, 42, 64
2, 27744, Note_on_c, 0, 54, 127
2, 27792, Note_off_c, 0, 54, 64
2, 27792, Note_on_c, 0, 42, 127
2, 27840, Note_off_c, 0, 42, 64
2, 27840, Note_on_c, 0, 54, 127
2, 27888, Note_off_c, 0, 54, 64
2, 27888, Note_on_c, 0, 42, 127
2, 27936, Note_off_c, 0, 42, 64
2, 27936, Note_on_c, 0, 54, 127
2, 27984, Note_off_c, 0, 54, 64
2, 27984, Note_on_c, 0, 44, 127
2, 28032, Note_off_c, 0, 44, 64
2, 28032, Note_on_c, 0, 56, 127
2, 28080, Note_off_c, 0, 56, 64
2, 28080, Note_on_c, 0, 44, 127
2, 28128, Note_off_c, 0, 44, 64
2, 28128, Note_on_c, 0, 56, 127
2, 28176, Note_off_c, 0, 56, 64
2, 28176, Note_on_c, 0, 44, 127
2, 28224, Note_off_c, 0, 44, 64
2, 28224, Note_on_c, 0, 56, 127
2, 28272, Note_off_c, 0, 56, 64
2, 28272, Note_on_c, 0, 44, 127
2, 28320, Note_off_c, 0, 44, 64
2, 28320, Note_on_c, 0, 56, 127
2, 28368, Note_off_c, 0, 56, 64
2, 28368, Note_on_c, 0, 44, 127
2, 28416, Note_off_c, 0, 44, 64
2, 28416, Note_on_c, 0, 54, 127
2, 28464, Note_off_c, 0, 54, 64
2, 28464, Note_on_c, 0, 42, 127
2, 28512, Note_off_c, 0, 42, 64
2, 28512, Note_on_c, 0, 54, 127
2, 28560, Note_off_c, 0, 54, 64
2, 28560, Note_on_c, 0, 42, 127
2, 28608, Note_off_c, 0, 42, 64
2, 28608, Note_on_c, 0, 63, 127
2, 28656, Note_off_c, 0, 63, 64
2, 28656, Note_on_c, 0, 51, 127
2, 28704, Note_off_c, 0, 51, 64
2, 28704, Note_on_c, 0, 63, 127
2, 28752, Note_off_c, 0, 63, 64
2, 28752, Note_on_c, 0, 51, 127
2, 28800, Note_off_c, 0, 51, 64
2, 28800, Note_on_c, 0, 44, 127
2, 28800, Note_on_c, 0, 56, 127
2, 28848, Note_off_c, 0, 44, 64
2, 28848, Note_off_c, 0, 56, 64
2, 28944, Note_on_c, 0, 44, 127
2, 28944, Note_on_c, 0, 51, 127
2, 28944, Note_on_c, 0, 56, 127
2, 29184, Note_off_c, 0, 44, 64
2, 29184, Note_off_c, 0, 51, 64
2, 29184, Note_off_c, 0, 56, 64
2, 29184, Note_on_c, 0, 54, 127
2, 29184, Note_on_c, 0, 58, 127
2, 29184, Note_on_c, 0, 61, 127
2, 29256, Note_off_c, 0, 54, 64
2, 29256, Note_off_c, 0, 58, 64
2, 29256, Note_off_c, 0, 61, 64
2, 29256, Note_on_c, 0, 54, 127
2, 29256, Note_on_c, 0, 58, 127
2, 29256, Note_on_c, 0, 61, 127
2, 29328, Note_off_c, 0, 54, 64
2, 29328, Note_off_c, 0, 58, 64
2, 29328, Note_off_c, 0, 61, 64
2, 29328, Note_on_c, 0, 56, 127
2, 29328, Note_on_c, 0, 60, 127
2, 29328, Note_on_c, 0, 63, 127
2, 29400, Note_off_c, 0, 56, 64
2, 29400, Note_off_c, 0, 60, 64
2, 29400, Note_off_c, 0, 63, 64
2, 29568, Note_on_c, 0, 53, 127
2, 29568, Note_on_c, 0, 56, 127
2, 29568, Note_on_c, 0, 60, 127
2, 29640, Note_off_c, 0, 53, 64
2, 29640, Note_off_c, 0, 56, 64
2, 29640, Note_off_c, 0, 60, 64
2, 29640, Note_on_c, 0, 53, 127
2, 29640, Note_on_c, 0, 56, 127
2, 29640, Note_on_c, 0, 60, 127
2, 29712, Note_off_c, 0, 53, 64
2, 29712, Note_off_c, 0, 56, 64
2, 29712, Note_off_c, 0, 60, 64
2, 29712, Note_on_c, 0, 58, 127
2, 29712, Note_on_c, 0, 61, 127
2, 29712, Note_on_c, 0, 65, 127
2, 29784, Note_off_c, 0, 58, 64
2, 29784, Note_off_c, 0, 61, 64
2, 29784, Note_off_c, 0, 65, 64
2, 29952, Note_on_c, 0, 51, 127
2, 29952, Note_on_c, 0, 54, 127
2, 29952, Note_on_c, 0, 58, 127
2, 30048, Note_off_c, 0, 51, 64
2, 30048, Note_off_c, 0, 54, 64
2, 30048, Note_off_c, 0, 58, 64
2, 30048, Note_on_c, 0, 51, 127
2, 30096, Note_off_c, 0, 51, 64
2, 30096, Note_on_c, 0, 51, 127
2, 30096, Note_on_c, 0, 56, 127
2, 30096, Note_on_c, 0, 60, 127
2, 30168, Note_off_c, 0, 51, 64
2, 30168, Note_off_c, 0, 56, 64
2, 30168, Note_off_c, 0, 60, 64
2, 30192, Note_on_c, 0, 51, 127
2, 30192, Note_on_c, 0, 56, 127
2, 30192, Note_on_c, 0, 60, 127
2, 30264, Note_off_c, 0, 51, 64
2, 30264, Note_off_c, 0, 56, 64
2, 30264, Note_off_c, 0, 60, 64
2, 30336, Note_on_c, 0, 60, 127
2, 30336, Note_on_c, 0, 65, 127
2, 30432, Note_off_c, 0, 60, 64
2, 30432, Note_off_c, 0, 65, 64
2, 30432, Note_on_c, 0, 53, 127
2, 30432, Note_on_c, 0, 58, 127
2, 30432, Note_on_c, 0, 61, 127
2, 30432, Note_on_c, 0, 65, 127
2, 30624, Note_off_c, 0, 53, 64
2, 30624, Note_off_c, 0, 58, 64
2, 30624, Note_off_c, 0, 61, 64
2, 30624, Note_off_c, 0, 65, 64
2, 30720, Note_on_c, 0, 54, 127
2, 30720, Note_on_c, 0, 58, 127
2, 30720, Note_on_c, 0, 61, 127
2, 30792, Note_off_c, 0, 54, 64
2, 30792, Note_off_c, 0, 58, 64
2, 30792, Note_off_c, 0, 61, 64
2, 30792, Note_on_c, 0, 54, 127
2, 30792, Note_on_c, 0, 58, 127
2, 30792, Note_on_c, 0, 61, 127
2, 30864, Note_off_c, 0, 54, 64
2, 30864, Note_off_c, 0, 58, 64
2, 30864, Note_off_c, 0, 61, 64
2, 30864, Note_on_c, 0, 56, 127
2, 30864, Note_on_c, 0, 60, 127
2, 30864, Note_on_c, 0, 63, 127
2, 30936, Note_off_c, 0, 56, 64
2, 30936, Note_off_c, 0, 60, 64
2, 30936, Note_off_c, 0, 63, 64
2, 31104, Note_on_c, 0, 53, 127
2, 31104, Note_on_c, 0, 56, 127
2, 31104, Note_on_c, 0, 60, 127
2, 31200, Note_off_c, 0, 53, 64
2, 31200, Note_on_c, 0, 53, 127
2, 31248, Note_off_c, 0, 53, 64
2, 31248, Note_off_c, 0, 56, 64
2, 31248, Note_off_c, 0, 60, 64
2, 31248, Note_on_c, 0, 58, 127
2, 31248, Note_on_c, 0, 61, 127
2, 31248, Note_on_c, 0, 65, 127
2, 31320, Note_off_c, 0, 58, 64
2, 31320, Note_off_c, 0, 61, 64
2, 31320, Note_off_c, 0, 65, 64
2, 31488, Note_on_c, 0, 51, 127
2, 31488, Note_on_c, 0, 54, 127
2, 31488, Note_on_c, 0, 58, 127
2, 31584, Note_off_c, 0, 51, 64
2, 31584, Note_off_c, 0, 54, 64
2, 31584, Note_off_c, 0, 58, 64
2, 31584, Note_on_c, 0, 51, 127
2, 31632, Note_off_c, 0, 51, 64
2, 31632, Note_on_c, 0, 51, 127
2, 31632, Note_on_c, 0, 56, 127
2, 31632, Note_on_c, 0, 60, 127
2, 31704, Note_off_c, 0, 51, 64
2, 31704, Note_off_c, 0, 56, 64
2, 31704, Note_off_c, 0, 60, 64
2, 31728, Note_on_c, 0, 51, 127
2, 31728, Note_on_c, 0, 56, 127
2, 31728, Note_on_c, 0, 60, 127
2, 31800, Note_off_c, 0, 51, 64
2, 31800, Note_off_c, 0, 56, 64
2, 31800, Note_off_c, 0, 60, 64
2, 31872, Note_on_c, 0, 60, 127
2, 31872, Note_on_c, 0, 65, 127
2, 31968, Note_off_c, 0, 60, 64
2, 31968, Note_off_c, 0, 65, 64
2, 31968, Note_on_c, 0, 53, 127
2, 31968, Note_on_c, 0, 58, 127
2, 31968, Note_on_c, 0, 61, 127
2, 31968, Note_on_c, 0, 65, 127
2, 32160, Note_off_c, 0, 53, 64
2, 32160, Note_off_c, 0, 58, 64
2, 32160, Note_off_c, 0, 61, 64
2, 32160, Note_off_c, 0, 65, 64
2, 32256, Note_on_c, 0, 54, 127
2, 32256, Note_on_c, 0, 58, 127
2, 32256, Note_on_c, 0, 61, 127
2, 32328, Note_off_c, 0, 54, 64
2, 32328, Note_off_c, 0, 58, 64
2, 32328, Note_off_c, 0, 61, 64
2, 32328, Note_on_c, 0, 54, 127
2, 32328, Note_on_c, 0, 58, 127
2, 32328, Note_on_c, 0, 61, 127
2, 32400, Note_off_c, 0, 54, 64
2, 32400, Note_off_c, 0, 58, 64
2, 32400, Note_off_c, 0, 61, 64
2, 32400, Note_on_c, 0, 56, 127
2, 32400, Note_on_c, 0, 60, 127
2, 32400, Note_on_c, 0, 63, 127
2, 32472, Note_off_c, 0, 56, 64
2, 32472, Note_off_c, 0, 60, 64
2, 32472, Note_off_c, 0, 63, 64
2, 32640, Note_on_c, 0, 53, 127
2, 32640, Note_on_c, 0, 56, 127
2, 32640, Note_on_c, 0, 60, 127
2, 32712, Note_off_c, 0, 53, 64
2, 32712, Note_off_c, 0, 56, 64
2, 32712, Note_off_c, 0, 60, 64
2, 32712, Note_on_c, 0, 53, 127
2, 32712, Note_on_c, 0, 56, 127
2, 32712, Note_on_c, 0, 60, 127
2, 32784, Note_off_c, 0, 53, 64
2, 32784, Note_off_c, 0, 56, 64
2, 32784, Note_off_c, 0, 60, 64
2, 32784, Note_on_c, 0, 58, 127
2, 32784, Note_on_c, 0, 61, 127
2, 32784, Note_on_c, 0, 65, 127
2, 32856, Note_off_c, 0, 58, 64
2, 32856, Note_off_c, 0, 61, 64
2, 32856, Note_off_c, 0, 65, 64
2, 33024, Note_on_c, 0, 51, 127
2, 33024, Note_on_c, 0, 54, 127
2, 33024, Note_on_c, 0, 58, 127
2, 33120, Note_off_c, 0, 51, 64
2, 33120, Note_off_c, 0, 54, 64
2, 33120, Note_off_c, 0, 58, 64
2, 33120, Note_on_c, 0, 51, 127
2, 33168, Note_off_c, 0, 51, 64
2, 33168, Note_on_c, 0, 51, 127
2, 33168, Note_on_c, 0, 56, 127
2, 33168, Note_on_c, 0, 60, 127
2, 33240, Note_off_c, 0, 51, 64
2, 33240, Note_off_c, 0, 56, 64
2, 33240, Note_off_c, 0, 60, 64
2, 33264, Note_on_c, 0, 51, 127
2, 33264, Note_on_c, 0, 56, 127
2, 33264, Note_on_c, 0, 60, 127
2, 33336, Note_off_c, 0, 51, 64
2, 33336, Note_off_c, 0, 56, 64
2, 33336, Note_off_c, 0, 60, 64
2, 33408, Note_on_c, 0, 60, 127
2, 33408, Note_on_c, 0, 65, 127
2, 33504, Note_off_c, 0, 60, 64
2, 33504, Note_off_c, 0, 65, 64
2, 33504, Note_on_c, 0, 53, 127
2, 33504, Note_on_c, 0, 58, 127
2, 33504, Note_on_c, 0, 61, 127
2, 33504, Note_on_c, 0, 65, 127
2, 33696, Note_off_c, 0, 53, 64
2, 33696, Note_off_c, 0, 58, 64
2, 33696, Note_off_c, 0, 61, 64
2, 33696, Note_off_c, 0, 65, 64
2, 33792, Note_on_c, 0, 54, 127
2, 33792, Note_on_c, 0, 58, 127
2, 33792, Note_on_c, 0, 61, 127
2, 33864, Note_off_c, 0, 54, 64
2, 33864, Note_off_c, 0, 58, 64
2, 33864, Note_off_c, 0, 61, 64
2, 33864, Note_on_c, 0, 54, 127
2, 33864, Note_on_c, 0, 58, 127
2, 33864, Note_on_c, 0, 61, 127
2, 33936, Note_off_c, 0, 54, 64
2, 33936, Note_off_c, 0, 58, 64
2, 33936, Note_off_c, 0, 61, 64
2, 33936, Note_on_c, 0, 56, 127
2, 33936, Note_on_c, 0, 60, 127
2, 33936, Note_on_c, 0, 63, 127
2, 34008, Note_off_c, 0, 56, 64
2, 34008, Note_off_c, 0, 60, 64
2, 34008, Note_off_c, 0, 63, 64
2, 34176, Note_on_c, 0, 53, 127
2, 34176, Note_on_c, 0, 56, 127
2, 34176, Note_on_c, 0, 60, 127
2, 34272, Note_off_c, 0, 53, 64
2, 34272, Note_on_c, 0, 53, 127
2, 34320, Note_off_c, 0, 53, 64
2, 34320, Note_off_c, 0, 56, 64
2, 34320, Note_off_c, 0, 60, 64
2, 34320, Note_on_c, 0, 58, 127
2, 34320, Note_on_c, 0, 61, 127
2, 34320, Note_on_c, 0, 65, 127
2, 34392, Note_off_c, 0, 58, 64
2, 34392, Note_off_c, 0, 61, 64
2, 34392, Note_off_c, 0, 65, 64
2, 34560, Note_on_c, 0, 51, 127
2, 34560, Note_on_c, 0, 54, 127
2, 34560, Note_on_c, 0, 58, 127
2, 34656, Note_off_c, 0, 51, 64
2, 34656, Note_off_c, 0, 54, 64
2, 34656, Note_off_c, 0, 58, 64
2, 34656, Note_on_c, 0, 51, 127
2, 34704, Note_off_c, 0, 51, 64
2, 34704, Note_on_c, 0, 51, 127
2, 34704, Note_on_c, 0, 56, 127
2, 34704, Note_on_c, 0, 60, 127
2, 34776, Note_off_c, 0, 51, 64
2, 34776, Note_off_c, 0, 56, 64
2, 34776, Note_off_c, 0, 60, 64
2, 34800, Note_on_c, 0, 51, 127
2, 34800, Note_on_c, 0, 56, 127
2, 34800, Note_on_c, 0, 60, 127
2, 34872, Note_off_c, 0, 51, 64
2, 34872, Note_off_c, 0, 56, 64
2, 34872, Note_off_c, 0, 60, 64
2, 34944, Note_on_c, 0, 60, 127
2, 34944, Note_on_c, 0, 65, 127
2, 35040, Note_off_c, 0, 60, 64
2, 35040, Note_off_c, 0, 65, 64
2, 35040, Note_on_c, 0, 53, 127
2, 35040, Note_on_c, 0, 58, 127
2, 35040, Note_on_c, 0, 61, 127
2, 35040, Note_on_c, 0, 65, 127
2, 35232, Note_off_c, 0, 65, 64
2, 35328, Note_off_c, 0, 53, 64
2, 35328, Note_off_c, 0, 58, 64
2, 35328, Note_off_c, 0, 61, 64
2, 35328, End_track
3, 0, Start_track
3, 0, Title_t, "\000"
3, 0, Note_on_c, 0, 70, 127
3, 0, Note_on_c, 0, 73, 127
3, 144, Note_off_c, 0, 70, 64
3, 144, Note_off_c, 0, 73, 64
3, 144, Note_on_c, 0, 72, 127
3, 144, Note_on_c, 0, 75, 127
3, 384, Note_off_c, 0, 72, 64
3, 384, Note_off_c, 0, 75, 64
3, 384, Note_on_c, 0, 72, 127
3, 384, Note_on_c, 0, 75, 127
3, 528, Note_off_c, 0, 72, 64
3, 528, Note_off_c, 0, 75, 64
3, 528, Note_on_c, 0, 73, 127
3, 528, Note_on_c, 0, 77, 127
3, 672, Note_off_c, 0, 73, 64
3, 672, Note_off_c, 0, 77, 64
3, 672, Note_on_c, 0, 80, 127
3, 696, Note_off_c, 0, 80, 64
3, 696, Note_on_c, 0, 78, 127
3, 720, Note_off_c, 0, 78, 64
3, 720, Note_on_c, 0, 77, 127
3, 744, Note_off_c, 0, 77, 64
3, 744, Note_on_c, 0, 75, 127
3, 768, Note_off_c, 0, 75, 64
3, 768, Note_on_c, 0, 70, 127
3, 768, Note_on_c, 0, 73, 127
3, 912, Note_off_c, 0, 70, 64
3, 912, Note_off_c, 0, 73, 64
3, 912, Note_on_c, 0, 72, 127
3, 912, Note_on_c, 0, 75, 127
3, 1152, Note_off_c, 0, 72, 64
3, 1152, Note_off_c, 0, 75, 64
3, 1416, Note_on_c, 0, 68, 127
3, 1440, Note_off_c, 0, 68, 64
3, 1440, Note_on_c, 0, 70, 127
3, 1464, Note_off_c, 0, 70, 64
3, 1464, Note_on_c, 0, 73, 127
3, 1512, Note_off_c, 0, 73, 64
3, 1512, Note_on_c, 0, 73, 127
3, 1536, Note_off_c, 0, 73, 64
3, 1536, Note_on_c, 0, 70, 127
3, 1536, Note_on_c, 0, 73, 127
3, 1680, Note_off_c, 0, 70, 64
3, 1680, Note_off_c, 0, 73, 64
3, 1680, Note_on_c, 0, 72, 127
3, 1680, Note_on_c, 0, 75, 127
3, 1920, Note_off_c, 0, 72, 64
3, 1920, Note_off_c, 0, 75, 64
3, 1920, Note_on_c, 0, 72, 127
3, 1920, Note_on_c, 0, 75, 127
3, 2064, Note_off_c, 0, 72, 64
3, 2064, Note_off_c, 0, 75, 64
3, 2064, Note_on_c, 0, 73, 127
3, 2064, Note_on_c, 0, 77, 127
3, 2208, Note_off_c, 0, 73, 64
3, 2208, Note_off_c, 0, 77, 64
3, 2208, Note_on_c, 0, 80, 127
3, 2232, Note_off_c, 0, 80, 64
3, 2232, Note_on_c, 0, 78, 127
3, 2256, Note_off_c, 0, 78, 64
3, 2256, Note_on_c, 0, 77, 127
3, 2280, Note_off_c, 0, 77, 64
3, 2280, Note_on_c, 0, 75, 127
3, 2304, Note_off_c, 0, 75, 64
3, 2304, Note_on_c, 0, 70, 127
3, 2304, Note_on_c, 0, 73, 127
3, 2448, Note_off_c, 0, 70, 64
3, 2448, Note_off_c, 0, 73, 64
3, 2448, Note_on_c, 0, 72, 127
3, 2448, Note_on_c, 0, 75, 127
3, 2688, Note_off_c, 0, 72, 64
3, 2688, Note_off_c, 0, 75, 64
3, 2688, Note_on_c, 0, 68, 127
3, 2688, Note_on_c, 0, 72, 127
3, 2736, Note_off_c, 0, 68, 64
3, 2736, Note_off_c, 0, 72, 64
3, 2736, Note_on_c, 0, 73, 127
3, 2784, Note_off_c, 0, 73, 64
3, 2784, Note_on_c, 0, 70, 127
3, 2784, Note_on_c, 0, 73, 127
3, 2976, Note_off_c, 0, 70, 64
3, 2976, Note_off_c, 0, 73, 64
3, 2976, Note_on_c, 0, 73, 127
3, 3000, Note_off_c, 0, 73, 64
3, 3000, Note_on_c, 0, 73, 127
3, 3048, Note_off_c, 0, 73, 64
3, 3048, Note_on_c, 0, 73, 127
3, 3072, Note_off_c, 0, 73, 64
3, 3168, Note_on_c, 0, 70, 127
3, 3216, Note_off_c, 0, 70, 64
3, 3216, Note_on_c, 0, 72, 127
3, 3264, Note_off_c, 0, 72, 64
3, 3264, Note_on_c, 0, 73, 127
3, 3312, Note_off_c, 0, 73, 64
3, 3312, Note_on_c, 0, 73, 127
3, 3360, Note_off_c, 0, 73, 64
3, 3360, Note_on_c, 0, 75, 127
3, 3408, Note_off_c, 0, 75, 64
3, 3408, Note_on_c, 0, 72, 127
3, 3504, Note_off_c, 0, 72, 64
3, 3504, Note_on_c, 0, 68, 127
3, 3744, Note_off_c, 0, 68, 64
3, 3888, Note_on_c, 0, 70, 127
3, 3936, Note_off_c, 0, 70, 64
3, 3936, Note_on_c, 0, 70, 127
3, 3984, Note_off_c, 0, 70, 64
3, 3984, Note_on_c, 0, 72, 127
3, 4032, Note_off_c, 0, 72, 64
3, 4032, Note_on_c, 0, 73, 127
3, 4080, Note_off_c, 0, 73, 64
3, 4080, Note_on_c, 0, 70, 127
3, 4176, Note_off_c, 0, 70, 64
3, 4176, Note_on_c, 0, 68, 127
3, 4224, Note_off_c, 0, 68, 64
3, 4224, Note_on_c, 0, 68, 127
3, 4224, Note_on_c, 0, 80, 127
3, 4272, Note_off_c, 0, 68, 64
3, 4272, Note_off_c, 0, 80, 64
3, 4320, Note_on_c, 0, 68, 127
3, 4320, Note_on_c, 0, 80, 127
3, 4368, Note_off_c, 0, 68, 64
3, 4368, Note_off_c, 0, 80, 64
3, 4368, Note_on_c, 0, 63, 127
3, 4368, Note_on_c, 0, 75, 127
3, 4512, Note_off_c, 0, 63, 64
3, 4512, Note_off_c, 0, 75, 64
3, 4656, Note_on_c, 0, 70, 127
3, 4704, Note_off_c, 0, 70, 64
3, 4704, Note_on_c, 0, 70, 127
3, 4752, Note_off_c, 0, 70, 64
3, 4752, Note_on_c, 0, 72, 127
3, 4800, Note_off_c, 0, 72, 64
3, 4800, Note_on_c, 0, 73, 127
3, 4848, Note_off_c, 0, 73, 64
3, 4848, Note_on_c, 0, 70, 127
3, 4896, Note_off_c, 0, 70, 64
3, 4896, Note_on_c, 0, 73, 127
3, 4944, Note_off_c, 0, 73, 64
3, 4944, Note_on_c, 0, 75, 127
3, 4992, Note_off_c, 0, 75, 64
3, 5040, Note_on_c, 0, 68, 127
3, 5040, Note_on_c, 0, 72, 127
3, 5088, Note_off_c, 0, 68, 64
3, 5088, Note_off_c, 0, 72, 64
3, 5088, Note_on_c, 0, 70, 127
3, 5136, Note_off_c, 0, 70, 64
3, 5136, Note_on_c, 0, 68, 127
3, 5232, Note_off_c, 0, 68, 64
3, 5424, Note_on_c, 0, 70, 127
3, 5472, Note_off_c, 0, 70, 64
3, 5472, Note_on_c, 0, 70, 127
3, 5520, Note_off_c, 0, 70, 64
3, 5520, Note_on_c, 0, 72, 127
3, 5568, Note_off_c, 0, 72, 64
3, 5568, Note_on_c, 0, 73, 127
3, 5616, Note_off_c, 0, 73, 64
3, 5616, Note_on_c, 0, 70, 127
3, 5664, Note_off_c, 0, 70, 64
3, 5664, Note_on_c, 0, 68, 127
3, 5760, Note_off_c, 0, 68, 64
3, 5760, Note_on_c, 0, 72, 127
3, 5760, Note_on_c, 0, 75, 127
3, 5808, Note_off_c, 0, 72, 64
3, 5808, Note_off_c, 0, 75, 64
3, 5808, Note_on_c, 0, 72, 127
3, 5808, Note_on_c, 0, 75, 127
3, 5856, Note_off_c, 0, 72, 64
3, 5856, Note_off_c, 0, 75, 64
3, 5856, Note_on_c, 0, 72, 127
3, 5856, Note_on_c, 0, 75, 127
3, 5904, Note_off_c, 0, 72, 64
3, 5904, Note_off_c, 0, 75, 64
3, 5904, Note_on_c, 0, 72, 127
3, 5904, Note_on_c, 0, 77, 127
3, 5952, Note_off_c, 0, 72, 64
3, 5952, Note_off_c, 0, 77, 64
3, 5952, Note_on_c, 0, 72, 127
3, 5952, Note_on_c, 0, 75, 127
3, 6048, Note_off_c, 0, 72, 64
3, 6048, Note_off_c, 0, 75, 64
3, 6144, Note_on_c, 0, 70, 127
3, 6144, Note_on_c, 0, 73, 127
3, 6384, Note_off_c, 0, 70, 64
3, 6384, Note_off_c, 0, 73, 64
3, 6384, Note_on_c, 0, 75, 127
3, 6432, Note_off_c, 0, 75, 64
3, 6432, Note_on_c, 0, 77, 127
3, 6480, Note_off_c, 0, 77, 64
3, 6480, Note_on_c, 0, 73, 127
3, 6528, Note_off_c, 0, 73, 64
3, 6528, Note_on_c, 0, 75, 127
3, 6576, Note_off_c, 0, 75, 64
3, 6576, Note_on_c, 0, 75, 127
3, 6624, Note_off_c, 0, 75, 64
3, 6624, Note_on_c, 0, 75, 127
3, 6672, Note_off_c, 0, 75, 64
3, 6672, Note_on_c, 0, 77, 127
3, 6720, Note_off_c, 0, 77, 64
3, 6720, Note_on_c, 0, 75, 127
3, 6816, Note_off_c, 0, 75, 64
3, 6816, Note_on_c, 0, 68, 127
3, 6912, Note_off_c, 0, 68, 64
3, 7104, Note_on_c, 0, 66, 127
3, 7104, Note_on_c, 0, 70, 127
3, 7152, Note_off_c, 0, 66, 64
3, 7152, Note_off_c, 0, 70, 64
3, 7152, Note_on_c, 0, 66, 127
3, 7152, Note_on_c, 0, 72, 127
3, 7200, Note_off_c, 0, 66, 64
3, 7200, Note_off_c, 0, 72, 64
3, 7200, Note_on_c, 0, 66, 127
3, 7200, Note_on_c, 0, 73, 127
3, 7248, Note_off_c, 0, 66, 64
3, 7248, Note_off_c, 0, 73, 64
3, 7248, Note_on_c, 0, 66, 127
3, 7248, Note_on_c, 0, 70, 127
3, 7296, Note_off_c, 0, 66, 64
3, 7296, Note_off_c, 0, 70, 64
3, 7344, Note_on_c, 0, 72, 127
3, 7344, Note_on_c, 0, 75, 127
3, 7392, Note_off_c, 0, 72, 64
3, 7392, Note_off_c, 0, 75, 64
3, 7392, Note_on_c, 0, 72, 127
3, 7392, Note_on_c, 0, 77, 127
3, 7440, Note_off_c, 0, 72, 64
3, 7440, Note_off_c, 0, 77, 64
3, 7440, Note_on_c, 0, 72, 127
3, 7440, Note_on_c, 0, 75, 127
3, 7488, Note_off_c, 0, 72, 64
3, 7488, Note_off_c, 0, 75, 64
3, 7584, Note_on_c, 0, 68, 127
3, 7608, Note_off_c, 0, 68, 64
3, 7608, Note_on_c, 0, 70, 127
3, 7632, Note_off_c, 0, 70, 64
3, 7632, Note_on_c, 0, 73, 127
3, 7656, Note_off_c, 0, 73, 64
3, 7656, Note_on_c, 0, 70, 127
3, 7680, Note_off_c, 0, 70, 64
3, 7680, Note_on_c, 0, 73, 127
3, 7680, Note_on_c, 0, 77, 127
3, 7752, Note_off_c, 0, 73, 64
3, 7752, Note_off_c, 0, 77, 64
3, 7752, Note_on_c, 0, 73, 127
3, 7752, Note_on_c, 0, 77, 127
3, 7824, Note_off_c, 0, 73, 64
3, 7824, Note_off_c, 0, 77, 64
3, 7824, Note_on_c, 0, 72, 127
3, 7824, Note_on_c, 0, 75, 127
3, 7896, Note_off_c, 0, 72, 64
3, 7896, Note_off_c, 0, 75, 64
3, 7968, Note_on_c, 0, 68, 127
3, 7992, Note_off_c, 0, 68, 64
3, 7992, Note_on_c, 0, 70, 127
3, 8016, Note_off_c, 0, 70, 64
3, 8016, Note_on_c, 0, 73, 127
3, 8040, Note_off_c, 0, 73, 64
3, 8040, Note_on_c, 0, 70, 127
3, 8064, Note_off_c, 0, 70, 64
3, 8064, Note_on_c, 0, 72, 127
3, 8064, Note_on_c, 0, 75, 127
3, 8136, Note_off_c, 0, 72, 64
3, 8136, Note_off_c, 0, 75, 64
3, 8136, Note_on_c, 0, 72, 127
3, 8136, Note_on_c, 0, 75, 127
3, 8208, Note_off_c, 0, 72, 64
3, 8208, Note_off_c, 0, 75, 64
3, 8208, Note_on_c, 0, 70, 127
3, 8208, Note_on_c, 0, 73, 127
3, 8280, Note_off_c, 0, 70, 64
3, 8280, Note_off_c, 0, 73, 64
3, 8352, Note_on_c, 0, 68, 127
3, 8376, Note_off_c, 0, 68, 64
3, 8376, Note_on_c, 0, 70, 127
3, 8400, Note_off_c, 0, 70, 64
3, 8400, Note_on_c, 0, 73, 127
3, 8424, Note_off_c, 0, 73, 64
3, 8424, Note_on_c, 0, 70, 127
3, 8448, Note_off_c, 0, 70, 64
3, 8448, Note_on_c, 0, 70, 127
3, 8448, Note_on_c, 0, 73, 127
3, 8544, Note_off_c, 0, 70, 64
3, 8544, Note_off_c, 0, 73, 64
3, 8544, Note_on_c, 0, 75, 127
3, 8592, Note_off_c, 0, 75, 64
3, 8592, Note_on_c, 0, 68, 127
3, 8592, Note_on_c, 0, 72, 127
3, 8688, Note_off_c, 0, 68, 64
3, 8688, Note_off_c, 0, 72, 64
3, 8688, Note_on_c, 0, 68, 127
3, 8784, Note_off_c, 0, 68, 64
3, 8784, Note_on_c, 0, 68, 127
3, 8832, Note_off_c, 0, 68, 64
3, 8832, Note_on_c, 0, 75, 127
3, 8928, Note_off_c, 0, 75, 64
3, 8928, Note_on_c, 0, 70, 127
3, 8928, Note_on_c, 0, 73, 127
3, 9072, Note_off_c, 0, 70, 64
3, 9072, Note_off_c, 0, 73, 64
3, 9120, Note_on_c, 0, 68, 127
3, 9144, Note_off_c, 0, 68, 64
3, 9144, Note_on_c, 0, 70, 127
3, 9168, Note_off_c, 0, 70, 64
3, 9168, Note_on_c, 0, 73, 127
3, 9192, Note_off_c, 0, 73, 64
3, 9192, Note_on_c, 0, 70, 127
3, 9216, Note_off_c, 0, 70, 64
3, 9216, Note_on_c, 0, 73, 127
3, 9216, Note_on_c, 0, 77, 127
3, 9288, Note_off_c, 0, 73, 64
3, 9288, Note_off_c, 0, 77, 64
3, 9288, Note_on_c, 0, 73, 127
3, 9288, Note_on_c, 0, 77, 127
3, 9360, Note_off_c, 0, 73, 64
3, 9360, Note_off_c, 0, 77, 64
3, 9360, Note_on_c, 0, 72, 127
3, 9360, Note_on_c, 0, 75, 127
3, 9432, Note_off_c, 0, 72, 64
3, 9432, Note_off_c, 0, 75, 64
3, 9504, Note_on_c, 0, 68, 127
3, 9528, Note_off_c, 0, 68, 64
3, 9528, Note_on_c, 0, 70, 127
3, 9552, Note_off_c, 0, 70, 64
3, 9552, Note_on_c, 0, 73, 127
3, 9576, Note_off_c, 0, 73, 64
3, 9576, Note_on_c, 0, 70, 127
3, 9600, Note_off_c, 0, 70, 64
3, 9600, Note_on_c, 0, 75, 127
3, 9600, Note_on_c, 0, 80, 127
3, 9696, Note_off_c, 0, 75, 64
3, 9696, Note_off_c, 0, 80, 64
3, 9696, Note_on_c, 0, 72, 127
3, 9744, Note_off_c, 0, 72, 64
3, 9744, Note_on_c, 0, 70, 127
3, 9744, Note_on_c, 0, 73, 127
3, 9840, Note_off_c, 0, 70, 64
3, 9840, Note_off_c, 0, 73, 64
3, 9888, Note_on_c, 0, 68, 127
3, 9912, Note_off_c, 0, 68, 64
3, 9912, Note_on_c, 0, 70, 127
3, 9936, Note_off_c, 0, 70, 64
3, 9936, Note_on_c, 0, 73, 127
3, 9960, Note_off_c, 0, 73, 64
3, 9960, Note_on_c, 0, 70, 127
3, 9984, Note_off_c, 0, 70, 64
3, 9984, Note_on_c, 0, 70, 127
3, 9984, Note_on_c, 0, 73, 127
3, 10080, Note_off_c, 0, 70, 64
3, 10080, Note_off_c, 0, 73, 64
3, 10080, Note_on_c, 0, 75, 127
3, 10128, Note_off_c, 0, 75, 64
3, 10128, Note_on_c, 0, 68, 127
3, 10128, Note_on_c, 0, 72, 127
3, 10224, Note_off_c, 0, 68, 64
3, 10224, Note_off_c, 0, 72, 64
3, 10224, Note_on_c, 0, 68, 127
3, 10320, Note_off_c, 0, 68, 64
3, 10320, Note_on_c, 0, 68, 127
3, 10368, Note_off_c, 0, 68, 64
3, 10368, Note_on_c, 0, 68, 127
3, 10368, Note_on_c, 0, 72, 127
3, 10368, Note_on_c, 0, 75, 127
3, 10464, Note_off_c, 0, 68, 64
3, 10464, Note_off_c, 0, 72, 64
3, 10464, Note_off_c, 0, 75, 64
3, 10464, Note_on_c, 0, 70, 127
3, 10464, Note_on_c, 0, 73, 127
3, 10752, Note_off_c, 0, 70, 64
3, 10752, Note_off_c, 0, 73, 64
3, 10800, Note_on_c, 0, 73, 127
3, 10848, Note_off_c, 0, 73, 64
3, 10848, Note_on_c, 0, 73, 127
3, 10896, Note_off_c, 0, 73, 64
3, 10896, Note_on_c, 0, 70, 127
3, 10944, Note_off_c, 0, 70, 64
3, 10944, Note_on_c, 0, 73, 127
3, 10992, Note_off_c, 0, 73, 64
3, 10992, Note_on_c, 0, 75, 127
3, 11088, Note_off_c, 0, 75, 64
3, 11184, Note_on_c, 0, 70, 127
3, 11232, Note_off_c, 0, 70, 64
3, 11232, Note_on_c, 0, 70, 127
3, 11280, Note_off_c, 0, 70, 64
3, 11280, Note_on_c, 0, 68, 127
3, 11424, Note_off_c, 0, 68, 64
3, 11568, Note_on_c, 0, 70, 127
3, 11616, Note_off_c, 0, 70, 64
3, 11616, Note_on_c, 0, 70, 127
3, 11664, Note_off_c, 0, 70, 64
3, 11664, Note_on_c, 0, 72, 127
3, 11712, Note_off_c, 0, 72, 64
3, 11712, Note_on_c, 0, 73, 127
3, 11760, Note_off_c, 0, 73, 64
3, 11760, Note_on_c, 0, 70, 127
3, 11808, Note_off_c, 0, 70, 64
3, 11808, Note_on_c, 0, 68, 127
3, 11904, Note_off_c, 0, 68, 64
3, 11952, Note_on_c, 0, 68, 127
3, 11952, Note_on_c, 0, 80, 127
3, 12000, Note_off_c, 0, 68, 64
3, 12000, Note_off_c, 0, 80, 64
3, 12000, Note_on_c, 0, 68, 127
3, 12000, Note_on_c, 0, 80, 127
3, 12048, Note_off_c, 0, 68, 64
3, 12048, Note_off_c, 0, 80, 64
3, 12048, Note_on_c, 0, 63, 127
3, 12048, Note_on_c, 0, 75, 127
3, 12144, Note_off_c, 0, 63, 64
3, 12144, Note_off_c, 0, 75, 64
3, 12144, Note_on_c, 0, 65, 127
3, 12144, Note_on_c, 0, 77, 127
3, 12192, Note_off_c, 0, 65, 64
3, 12192, Note_off_c, 0, 77, 64
3, 12192, Note_on_c, 0, 63, 127
3, 12192, Note_on_c, 0, 75, 127
3, 12240, Note_off_c, 0, 63, 64
3, 12240, Note_off_c, 0, 75, 64
3, 12240, Note_on_c, 0, 61, 127
3, 12240, Note_on_c, 0, 73, 127
3, 12288, Note_off_c, 0, 61, 64
3, 12288, Note_off_c, 0, 73, 64
3, 12336, Note_on_c, 0, 73, 127
3, 12384, Note_off_c, 0, 73, 64
3, 12384, Note_on_c, 0, 73, 127
3, 12432, Note_off_c, 0, 73, 64
3, 12432, Note_on_c, 0, 70, 127
3, 12480, Note_off_c, 0, 70, 64
3, 12480, Note_on_c, 0, 73, 127
3, 12528, Note_off_c, 0, 73, 64
3, 12528, Note_on_c, 0, 70, 127
3, 12576, Note_off_c, 0, 70, 64
3, 12576, Note_on_c, 0, 73, 127
3, 12624, Note_off_c, 0, 73, 64
3, 12624, Note_on_c, 0, 75, 127
3, 12672, Note_off_c, 0, 75, 64
3, 12720, Note_on_c, 0, 70, 127
3, 12768, Note_off_c, 0, 70, 64
3, 12768, Note_on_c, 0, 70, 127
3, 12816, Note_off_c, 0, 70, 64
3, 12816, Note_on_c, 0, 68, 127
3, 13056, Note_off_c, 0, 68, 64
3, 13104, Note_on_c, 0, 70, 127
3, 13152, Note_off_c, 0, 70, 64
3, 13152, Note_on_c, 0, 70, 127
3, 13200, Note_off_c, 0, 70, 64
3, 13200, Note_on_c, 0, 72, 127
3, 13248, Note_off_c, 0, 72, 64
3, 13248, Note_on_c, 0, 73, 127
3, 13296, Note_off_c, 0, 73, 64
3, 13296, Note_on_c, 0, 70, 127
3, 13344, Note_off_c, 0, 70, 64
3, 13344, Note_on_c, 0, 68, 127
3, 13440, Note_off_c, 0, 68, 64
3, 13536, Note_on_c, 0, 72, 127
3, 13536, Note_on_c, 0, 75, 127
3, 13584, Note_off_c, 0, 72, 64
3, 13584, Note_off_c, 0, 75, 64
3, 13584, Note_on_c, 0, 72, 127
3, 13584, Note_on_c, 0, 77, 127
3, 13632, Note_off_c, 0, 72, 64
3, 13632, Note_off_c, 0, 77, 64
3, 13632, Note_on_c, 0, 72, 127
3, 13632, Note_on_c, 0, 77, 127
3, 13728, Note_off_c, 0, 72, 64
3, 13728, Note_off_c, 0, 77, 64
3, 13728, Note_on_c, 0, 72, 127
3, 13728, Note_on_c, 0, 75, 127
3, 13824, Note_off_c, 0, 72, 64
3, 13824, Note_off_c, 0, 75, 64
3, 13824, Note_on_c, 0, 70, 127
3, 13824, Note_on_c, 0, 73, 127
3, 14064, Note_off_c, 0, 70, 64
3, 14064, Note_off_c, 0, 73, 64
3, 14064, Note_on_c, 0, 75, 127
3, 14112, Note_off_c, 0, 75, 64
3, 14112, Note_on_c, 0, 77, 127
3, 14160, Note_off_c, 0, 77, 64
3, 14160, Note_on_c, 0, 73, 127
3, 14208, Note_off_c, 0, 73, 64
3, 14208, Note_on_c, 0, 75, 127
3, 14256, Note_off_c, 0, 75, 64
3, 14256, Note_on_c, 0, 75, 127
3, 14304, Note_off_c, 0, 75, 64
3, 14304, Note_on_c, 0, 75, 127
3, 14352, Note_off_c, 0, 75, 64
3, 14352, Note_on_c, 0, 77, 127
3, 14400, Note_off_c, 0, 77, 64
3, 14400, Note_on_c, 0, 75, 127
3, 14496, Note_off_c, 0, 75, 64
3, 14496, Note_on_c, 0, 68, 127
3, 14592, Note_off_c, 0, 68, 64
3, 14784, Note_on_c, 0, 66, 127
3, 14784, Note_on_c, 0, 70, 127
3, 14832, Note_off_c, 0, 66, 64
3, 14832, Note_off_c, 0, 70, 64
3, 14832, Note_on_c, 0, 66, 127
3, 14832, Note_on_c, 0, 72, 127
3, 14880, Note_off_c, 0, 66, 64
3, 14880, Note_off_c, 0, 72, 64
3, 14880, Note_on_c, 0, 66, 127
3, 14880, Note_on_c, 0, 73, 127
3, 14928, Note_off_c, 0, 66, 64
3, 14928, Note_off_c, 0, 73, 64
3, 14928, Note_on_c, 0, 66, 127
3, 14928, Note_on_c, 0, 70, 127
3, 14976, Note_off_c, 0, 66, 64
3, 14976, Note_off_c, 0, 70, 64
3, 15024, Note_on_c, 0, 72, 127
3, 15024, Note_on_c, 0, 75, 127
3, 15072, Note_off_c, 0, 72, 64
3, 15072, Note_off_c, 0, 75, 64
3, 15072, Note_on_c, 0, 72, 127
3, 15072, Note_on_c, 0, 77, 127
3, 15120, Note_off_c, 0, 72, 64
3, 15120, Note_off_c, 0, 77, 64
3, 15120, Note_on_c, 0, 72, 127
3, 15120, Note_on_c, 0, 75, 127
3, 15168, Note_off_c, 0, 72, 64
3, 15168, Note_off_c, 0, 75, 64
3, 15264, Note_on_c, 0, 68, 127
3, 15288, Note_off_c, 0, 68, 64
3, 15288, Note_on_c, 0, 70, 127
3, 15312, Note_off_c, 0, 70, 64
3, 15312, Note_on_c, 0, 73, 127
3, 15336, Note_off_c, 0, 73, 64
3, 15336, Note_on_c, 0, 70, 127
3, 15360, Note_off_c, 0, 70, 64
3, 15360, Note_on_c, 0, 73, 127
3, 15360, Note_on_c, 0, 77, 127
3, 15432, Note_off_c, 0, 73, 64
3, 15432, Note_off_c, 0, 77, 64
3, 15432, Note_on_c, 0, 73, 127
3, 15432, Note_on_c, 0, 77, 127
3, 15504, Note_off_c, 0, 73, 64
3, 15504, Note_off_c, 0, 77, 64
3, 15504, Note_on_c, 0, 72, 127
3, 15504, Note_on_c, 0, 75, 127
3, 15576, Note_off_c, 0, 72, 64
3, 15576, Note_off_c, 0, 75, 64
3, 15648, Note_on_c, 0, 68, 127
3, 15672, Note_off_c, 0, 68, 64
3, 15672, Note_on_c, 0, 70, 127
3, 15696, Note_off_c, 0, 70, 64
3, 15696, Note_on_c, 0, 73, 127
3, 15720, Note_off_c, 0, 73, 64
3, 15720, Note_on_c, 0, 70, 127
3, 15744, Note_off_c, 0, 70, 64
3, 15744, Note_on_c, 0, 72, 127
3, 15744, Note_on_c, 0, 75, 127
3, 15816, Note_off_c, 0, 72, 64
3, 15816, Note_off_c, 0, 75, 64
3, 15816, Note_on_c, 0, 72, 127
3, 15816, Note_on_c, 0, 75, 127
3, 15888, Note_off_c, 0, 72, 64
3, 15888, Note_off_c, 0, 75, 64
3, 15888, Note_on_c, 0, 70, 127
3, 15888, Note_on_c, 0, 73, 127
3, 15960, Note_off_c, 0, 70, 64
3, 15960, Note_off_c, 0, 73, 64
3, 16032, Note_on_c, 0, 68, 127
3, 16056, Note_off_c, 0, 68, 64
3, 16056, Note_on_c, 0, 70, 127
3, 16080, Note_off_c, 0, 70, 64
3, 16080, Note_on_c, 0, 73, 127
3, 16104, Note_off_c, 0, 73, 64
3, 16104, Note_on_c, 0, 70, 127
3, 16128, Note_off_c, 0, 70, 64
3, 16128, Note_on_c, 0, 70, 127
3, 16128, Note_on_c, 0, 73, 127
3, 16224, Note_off_c, 0, 70, 64
3, 16224, Note_off_c, 0, 73, 64
3, 16224, Note_on_c, 0, 75, 127
3, 16272, Note_off_c, 0, 75, 64
3, 16272, Note_on_c, 0, 68, 127
3, 16272, Note_on_c, 0, 72, 127
3, 16368, Note_off_c, 0, 68, 64
3, 16368, Note_off_c, 0, 72, 64
3, 16368, Note_on_c, 0, 68, 127
3, 16464, Note_off_c, 0, 68, 64
3, 16464, Note_on_c, 0, 68, 127
3, 16512, Note_off_c, 0, 68, 64
3, 16512, Note_on_c, 0, 75, 127
3, 16608, Note_off_c, 0, 75, 64
3, 16608, Note_on_c, 0, 70, 127
3, 16608, Note_on_c, 0, 73, 127
3, 16752, Note_off_c, 0, 70, 64
3, 16752, Note_off_c, 0, 73, 64
3, 16800, Note_on_c, 0, 68, 127
3, 16824, Note_off_c, 0, 68, 64
3, 16824, Note_on_c, 0, 70, 127
3, 16848, Note_off_c, 0, 70, 64
3, 16848, Note_on_c, 0, 73, 127
3, 16872, Note_off_c, 0, 73, 64
3, 16872, Note_on_c, 0, 70, 127
3, 16896, Note_off_c, 0, 70, 64
3, 16896, Note_on_c, 0, 73, 127
3, 16896, Note_on_c, 0, 77, 127
3, 16968, Note_off_c, 0, 73, 64
3, 16968, Note_off_c, 0, 77, 64
3, 16968, Note_on_c, 0, 73, 127
3, 16968, Note_on_c, 0, 77, 127
3, 17040, Note_off_c, 0, 73, 64
3, 17040, Note_off_c, 0, 77, 64
3, 17040, Note_on_c, 0, 72, 127
3, 17040, Note_on_c, 0, 75, 127
3, 17112, Note_off_c, 0, 72, 64
3, 17112, Note_off_c, 0, 75, 64
3, 17184, Note_on_c, 0, 68, 127
3, 17208, Note_off_c, 0, 68, 64
3, 17208, Note_on_c, 0, 70, 127
3, 17232, Note_off_c, 0, 70, 64
3, 17232, Note_on_c, 0, 73, 127
3, 17256, Note_off_c, 0, 73, 64
3, 17256, Note_on_c, 0, 70, 127
3, 17280, Note_off_c, 0, 70, 64
3, 17280, Note_on_c, 0, 75, 127
3, 17280, Note_on_c, 0, 80, 127
3, 17376, Note_off_c, 0, 75, 64
3, 17376, Note_off_c, 0, 80, 64
3, 17376, Note_on_c, 0, 72, 127
3, 17424, Note_off_c, 0, 72, 64
3, 17424, Note_on_c, 0, 70, 127
3, 17424, Note_on_c, 0, 73, 127
3, 17520, Note_off_c, 0, 70, 64
3, 17520, Note_off_c, 0, 73, 64
3, 17568, Note_on_c, 0, 68, 127
3, 17592, Note_off_c, 0, 68, 64
3, 17592, Note_on_c, 0, 70, 127
3, 17616, Note_off_c, 0, 70, 64
3, 17616, Note_on_c, 0, 73, 127
3, 17640, Note_off_c, 0, 73, 64
3, 17640, Note_on_c, 0, 70, 127
3, 17664, Note_off_c, 0, 70, 64
3, 17664, Note_on_c, 0, 70, 127
3, 17664, Note_on_c, 0, 73, 127
3, 17760, Note_off_c, 0, 70, 64
3, 17760, Note_off_c, 0, 73, 64
3, 17760, Note_on_c, 0, 75, 127
3, 17808, Note_off_c, 0, 75, 64
3, 17808, Note_on_c, 0, 68, 127
3, 17808, Note_on_c, 0, 72, 127
3, 17904, Note_off_c, 0, 68, 64
3, 17904, Note_off_c, 0, 72, 64
3, 17904, Note_on_c, 0, 68, 127
3, 18000, Note_off_c, 0, 68, 64
3, 18000, Note_on_c, 0, 68, 127
3, 18048, Note_off_c, 0, 68, 64
3, 18048, Note_on_c, 0, 68, 127
3, 18048, Note_on_c, 0, 72, 127
3, 18048, Note_on_c, 0, 75, 127
3, 18144, Note_off_c, 0, 68, 64
3, 18144, Note_off_c, 0, 72, 64
3, 18144, Note_off_c, 0, 75, 64
3, 18144, Note_on_c, 0, 70, 127
3, 18144, Note_on_c, 0, 73, 127
3, 18336, Note_off_c, 0, 70, 64
3, 18336, Note_off_c, 0, 73, 64
3, 18336, Note_on_c, 0, 68, 127
3, 18360, Note_off_c, 0, 68, 64
3, 18360, Note_on_c, 0, 70, 127
3, 18384, Note_off_c, 0, 70, 64
3, 18384, Note_on_c, 0, 73, 127
3, 18408, Note_off_c, 0, 73, 64
3, 18408, Note_on_c, 0, 70, 127
3, 18432, Note_off_c, 0, 70, 64
3, 18432, Note_on_c, 0, 73, 127
3, 18432, Note_on_c, 0, 77, 127
3, 18504, Note_off_c, 0, 73, 64
3, 18504, Note_off_c, 0, 77, 64
3, 18504, Note_on_c, 0, 73, 127
3, 18504, Note_on_c, 0, 77, 127
3, 18576, Note_off_c, 0, 73, 64
3, 18576, Note_off_c, 0, 77, 64
3, 18576, Note_on_c, 0, 72, 127
3, 18576, Note_on_c, 0, 75, 127
3, 18648, Note_off_c, 0, 72, 64
3, 18648, Note_off_c, 0, 75, 64
3, 18720, Note_on_c, 0, 68, 127
3, 18744, Note_off_c, 0, 68, 64
3, 18744, Note_on_c, 0, 70, 127
3, 18768, Note_off_c, 0, 70, 64
3, 18768, Note_on_c, 0, 73, 127
3, 18792, Note_off_c, 0, 73, 64
3, 18792, Note_on_c, 0, 70, 127
3, 18816, Note_off_c, 0, 70, 64
3, 18816, Note_on_c, 0, 72, 127
3, 18816, Note_on_c, 0, 75, 127
3, 18888, Note_off_c, 0, 72, 64
3, 18888, Note_off_c, 0, 75, 64
3, 18888, Note_on_c, 0, 72, 127
3, 18888, Note_on_c, 0, 75, 127
3, 18960, Note_off_c, 0, 72, 64
3, 18960, Note_off_c, 0, 75, 64
3, 18960, Note_on_c, 0, 70, 127
3, 18960, Note_on_c, 0, 73, 127
3, 19032, Note_off_c, 0, 70, 64
3, 19032, Note_off_c, 0, 73, 64
3, 19104, Note_on_c, 0, 68, 127
3, 19128, Note_off_c, 0, 68, 64
3, 19128, Note_on_c, 0, 70, 127
3, 19152, Note_off_c, 0, 70, 64
3, 19152, Note_on_c, 0, 73, 127
3, 19176, Note_off_c, 0, 73, 64
3, 19176, Note_on_c, 0, 70, 127
3, 19200, Note_off_c, 0, 70, 64
3, 19200, Note_on_c, 0, 70, 127
3, 19200, Note_on_c, 0, 73, 127
3, 19296, Note_off_c, 0, 70, 64
3, 19296, Note_off_c, 0, 73, 64
3, 19296, Note_on_c, 0, 75, 127
3, 19344, Note_off_c, 0, 75, 64
3, 19344, Note_on_c, 0, 68, 127
3, 19344, Note_on_c, 0, 72, 127
3, 19440, Note_off_c, 0, 68, 64
3, 19440, Note_off_c, 0, 72, 64
3, 19440, Note_on_c, 0, 68, 127
3, 19536, Note_off_c, 0, 68, 64
3, 19536, Note_on_c, 0, 68, 127
3, 19584, Note_off_c, 0, 68, 64
3, 19584, Note_on_c, 0, 75, 127
3, 19680, Note_off_c, 0, 75, 64
3, 19680, Note_on_c, 0, 70, 127
3, 19680, Note_on_c, 0, 73, 127
3, 19824, Note_off_c, 0, 70, 64
3, 19824, Note_off_c, 0, 73, 64
3, 19872, Note_on_c, 0, 68, 127
3, 19896, Note_off_c, 0, 68, 64
3, 19896, Note_on_c, 0, 70, 127
3, 19920, Note_off_c, 0, 70, 64
3, 19920, Note_on_c, 0, 73, 127
3, 19944, Note_off_c, 0, 73, 64
3, 19944, Note_on_c, 0, 70, 127
3, 19968, Note_off_c, 0, 70, 64
3, 19968, Note_on_c, 0, 73, 127
3, 19968, Note_on_c, 0, 77, 127
3, 20040, Note_off_c, 0, 73, 64
3, 20040, Note_off_c, 0, 77, 64
3, 20040, Note_on_c, 0, 73, 127
3, 20040, Note_on_c, 0, 77, 127
3, 20112, Note_off_c, 0, 73, 64
3, 20112, Note_off_c, 0, 77, 64
3, 20112, Note_on_c, 0, 72, 127
3, 20112, Note_on_c, 0, 75, 127
3, 20184, Note_off_c, 0, 72, 64
3, 20184, Note_off_c, 0, 75, 64
3, 20256, Note_on_c, 0, 68, 127
3, 20280, Note_off_c, 0, 68, 64
3, 20280, Note_on_c, 0, 70, 127
3, 20304, Note_off_c, 0, 70, 64
3, 20304, Note_on_c, 0, 73, 127
3, 20328, Note_off_c, 0, 73, 64
3, 20328, Note_on_c, 0, 70, 127
3, 20352, Note_off_c, 0, 70, 64
3, 20352, Note_on_c, 0, 75, 127
3, 20352, Note_on_c, 0, 80, 127
3, 20448, Note_off_c, 0, 75, 64
3, 20448, Note_off_c, 0, 80, 64
3, 20448, Note_on_c, 0, 72, 127
3, 20496, Note_off_c, 0, 72, 64
3, 20496, Note_on_c, 0, 70, 127
3, 20496, Note_on_c, 0, 73, 127
3, 20592, Note_off_c, 0, 70, 64
3, 20592, Note_off_c, 0, 73, 64
3, 20640, Note_on_c, 0, 68, 127
3, 20664, Note_off_c, 0, 68, 64
3, 20664, Note_on_c, 0, 70, 127
3, 20688, Note_off_c, 0, 70, 64
3, 20688, Note_on_c, 0, 73, 127
3, 20712, Note_off_c, 0, 73, 64
3, 20712, Note_on_c, 0, 70, 127
3, 20736, Note_off_c, 0, 70, 64
3, 20736, Note_on_c, 0, 70, 127
3, 20736, Note_on_c, 0, 73, 127
3, 20832, Note_off_c, 0, 70, 64
3, 20832, Note_off_c, 0, 73, 64
3, 20832, Note_on_c, 0, 75, 127
3, 20880, Note_off_c, 0, 75, 64
3, 20880, Note_on_c, 0, 68, 127
3, 20880, Note_on_c, 0, 72, 127
3, 20976, Note_off_c, 0, 68, 64
3, 20976, Note_off_c, 0, 72, 64
3, 20976, Note_on_c, 0, 68, 127
3, 21072, Note_off_c, 0, 68, 64
3, 21072, Note_on_c, 0, 68, 127
3, 21120, Note_off_c, 0, 68, 64
3, 21120, Note_on_c, 0, 68, 127
3, 21120, Note_on_c, 0, 72, 127
3, 21120, Note_on_c, 0, 75, 127
3, 21216, Note_off_c, 0, 68, 64
3, 21216, Note_off_c, 0, 72, 64
3, 21216, Note_off_c, 0, 75, 64
3, 21216, Note_on_c, 0, 70, 127
3, 21216, Note_on_c, 0, 73, 127
3, 21504, Note_off_c, 0, 70, 64
3, 21504, Note_off_c, 0, 73, 64
3, 21504, Note_on_c, 0, 68, 127
3, 21888, Note_off_c, 0, 68, 64
3, 21888, Note_on_c, 0, 61, 127
3, 21888, Note_on_c, 0, 65, 127
3, 21888, Note_on_c, 0, 68, 127
3, 21960, Note_off_c, 0, 61, 64
3, 21960, Note_off_c, 0, 65, 64
3, 21960, Note_off_c, 0, 68, 64
3, 21960, Note_on_c, 0, 61, 127
3, 21960, Note_on_c, 0, 65, 127
3, 21960, Note_on_c, 0, 68, 127
3, 22032, Note_off_c, 0, 61, 64
3, 22032, Note_off_c, 0, 65, 64
3, 22032, Note_off_c, 0, 68, 64
3, 22032, Note_on_c, 0, 60, 127
3, 22032, Note_on_c, 0, 63, 127
3, 22032, Note_on_c, 0, 68, 127
3, 22176, Note_off_c, 0, 68, 64
3, 22176, Note_on_c, 0, 67, 127
3, 22272, Note_off_c, 0, 60, 64
3, 22272, Note_off_c, 0, 63, 64
3, 22272, Note_off_c, 0, 67, 64
3, 22272, Note_on_c, 0, 68, 127
3, 22656, Note_off_c, 0, 68, 64
3, 22656, Note_on_c, 0, 61, 127
3, 22656, Note_on_c, 0, 65, 127
3, 22656, Note_on_c, 0, 68, 127
3, 22728, Note_off_c, 0, 61, 64
3, 22728, Note_off_c, 0, 65, 64
3, 22728, Note_off_c, 0, 68, 64
3, 22728, Note_on_c, 0, 61, 127
3, 22728, Note_on_c, 0, 65, 127
3, 22728, Note_on_c, 0, 68, 127
3, 22800, Note_off_c, 0, 61, 64
3, 22800, Note_off_c, 0, 65, 64
3, 22800, Note_off_c, 0, 68, 64
3, 22800, Note_on_c, 0, 60, 127
3, 22800, Note_on_c, 0, 63, 127
3, 22800, Note_on_c, 0, 68, 127
3, 22944, Note_off_c, 0, 68, 64
3, 22944, Note_on_c, 0, 67, 127
3, 23040, Note_off_c, 0, 60, 64
3, 23040, Note_off_c, 0, 63, 64
3, 23040, Note_off_c, 0, 67, 64
3, 23040, Note_on_c, 0, 68, 127
3, 23088, Note_off_c, 0, 68, 64
3, 23088, Note_on_c, 0, 68, 127
3, 23112, Note_off_c, 0, 68, 64
3, 23112, Note_on_c, 0, 70, 127
3, 23136, Note_off_c, 0, 70, 64
3, 23136, Note_on_c, 0, 73, 127
3, 23160, Note_off_c, 0, 73, 64
3, 23160, Note_on_c, 0, 70, 127
3, 23184, Note_off_c, 0, 70, 64
3, 23184, Note_on_c, 0, 77, 127
3, 23232, Note_off_c, 0, 77, 64
3, 23232, Note_on_c, 0, 68, 127
3, 23256, Note_off_c, 0, 68, 64
3, 23256, Note_on_c, 0, 70, 127
3, 23280, Note_off_c, 0, 70, 64
3, 23280, Note_on_c, 0, 73, 127
3, 23304, Note_off_c, 0, 73, 64
3, 23304, Note_on_c, 0, 70, 127
3, 23328, Note_off_c, 0, 70, 64
3, 23328, Note_on_c, 0, 77, 127
3, 23376, Note_off_c, 0, 77, 64
3, 23424, Note_on_c, 0, 61, 127
3, 23424, Note_on_c, 0, 65, 127
3, 23424, Note_on_c, 0, 68, 127
3, 23496, Note_off_c, 0, 61, 64
3, 23496, Note_off_c, 0, 65, 64
3, 23496, Note_off_c, 0, 68, 64
3, 23496, Note_on_c, 0, 61, 127
3, 23496, Note_on_c, 0, 65, 127
3, 23496, Note_on_c, 0, 68, 127
3, 23568, Note_off_c, 0, 61, 64
3, 23568, Note_off_c, 0, 65, 64
3, 23568, Note_off_c, 0, 68, 64
3, 23568, Note_on_c, 0, 60, 127
3, 23568, Note_on_c, 0, 63, 127
3, 23568, Note_on_c, 0, 68, 127
3, 23712, Note_off_c, 0, 68, 64
3, 23712, Note_on_c, 0, 67, 127
3, 23808, Note_off_c, 0, 60, 64
3, 23808, Note_off_c, 0, 63, 64
3, 23808, Note_off_c, 0, 67, 64
3, 23808, Note_on_c, 0, 68, 127
3, 23856, Note_off_c, 0, 68, 64
3, 23856, Note_on_c, 0, 68, 127
3, 23880, Note_off_c, 0, 68, 64
3, 23880, Note_on_c, 0, 70, 127
3, 23904, Note_off_c, 0, 70, 64
3, 23904, Note_on_c, 0, 73, 127
3, 23928, Note_off_c, 0, 73, 64
3, 23928, Note_on_c, 0, 70, 127
3, 23952, Note_off_c, 0, 70, 64
3, 23952, Note_on_c, 0, 77, 127
3, 24000, Note_off_c, 0, 77, 64
3, 24000, Note_on_c, 0, 68, 127
3, 24024, Note_off_c, 0, 68, 64
3, 24024, Note_on_c, 0, 70, 127
3, 24048, Note_off_c, 0, 70, 64
3, 24048, Note_on_c, 0, 73, 127
3, 24072, Note_off_c, 0, 73, 64
3, 24072, Note_on_c, 0, 70, 127
3, 24096, Note_off_c, 0, 70, 64
3, 24096, Note_on_c, 0, 77, 127
3, 24144, Note_off_c, 0, 77, 64
3, 24192, Note_on_c, 0, 61, 127
3, 24192, Note_on_c, 0, 65, 127
3, 24192, Note_on_c, 0, 68, 127
3, 24264, Note_off_c, 0, 61, 64
3, 24264, Note_off_c, 0, 65, 64
3, 24264, Note_off_c, 0, 68, 64
3, 24264, Note_on_c, 0, 61, 127
3, 24264, Note_on_c, 0, 65, 127
3, 24264, Note_on_c, 0, 68, 127
3, 24336, Note_off_c, 0, 61, 64
3, 24336, Note_off_c, 0, 65, 64
3, 24336, Note_off_c, 0, 68, 64
3, 24336, Note_on_c, 0, 60, 127
3, 24336, Note_on_c, 0, 63, 127
3, 24336, Note_on_c, 0, 68, 127
3, 24576, Note_off_c, 0, 60, 64
3, 24576, Note_off_c, 0, 63, 64
3, 24576, Note_off_c, 0, 68, 64
3, 24624, Note_on_c, 0, 73, 127
3, 24672, Note_off_c, 0, 73, 64
3, 24672, Note_on_c, 0, 73, 127
3, 24720, Note_off_c, 0, 73, 64
3, 24720, Note_on_c, 0, 70, 127
3, 24768, Note_off_c, 0, 70, 64
3, 24768, Note_on_c, 0, 73, 127
3, 24816, Note_off_c, 0, 73, 64
3, 24816, Note_on_c, 0, 75, 127
3, 24912, Note_off_c, 0, 75, 64
3, 25008, Note_on_c, 0, 70, 127
3, 25056, Note_off_c, 0, 70, 64
3, 25056, Note_on_c, 0, 70, 127
3, 25104, Note_off_c, 0, 70, 64
3, 25104, Note_on_c, 0, 68, 127
3, 25248, Note_off_c, 0, 68, 64
3, 25392, Note_on_c, 0, 70, 127
3, 25440, Note_off_c, 0, 70, 64
3, 25440, Note_on_c, 0, 70, 127
3, 25488, Note_off_c, 0, 70, 64
3, 25488, Note_on_c, 0, 72, 127
3, 25536, Note_off_c, 0, 72, 64
3, 25536, Note_on_c, 0, 73, 127
3, 25584, Note_off_c, 0, 73, 64
3, 25584, Note_on_c, 0, 70, 127
3, 25632, Note_off_c, 0, 70, 64
3, 25632, Note_on_c, 0, 68, 127
3, 25728, Note_off_c, 0, 68, 64
3, 25776, Note_on_c, 0, 68, 127
3, 25776, Note_on_c, 0, 80, 127
3, 25824, Note_off_c, 0, 68, 64
3, 25824, Note_off_c, 0, 80, 64
3, 25824, Note_on_c, 0, 68, 127
3, 25824, Note_on_c, 0, 80, 127
3, 25872, Note_off_c, 0, 68, 64
3, 25872, Note_off_c, 0, 80, 64
3, 25872, Note_on_c, 0, 63, 127
3, 25872, Note_on_c, 0, 75, 127
3, 25968, Note_off_c, 0, 63, 64
3, 25968, Note_off_c, 0, 75, 64
3, 25968, Note_on_c, 0, 65, 127
3, 25968, Note_on_c, 0, 77, 127
3, 26016, Note_off_c, 0, 65, 64
3, 26016, Note_off_c, 0, 77, 64
3, 26016, Note_on_c, 0, 63, 127
3, 26016, Note_on_c, 0, 75, 127
3, 26064, Note_off_c, 0, 63, 64
3, 26064, Note_off_c, 0, 75, 64
3, 26064, Note_on_c, 0, 61, 127
3, 26064, Note_on_c, 0, 73, 127
3, 26112, Note_off_c, 0, 61, 64
3, 26112, Note_off_c, 0, 73, 64
3, 26160, Note_on_c, 0, 73, 127
3, 26208, Note_off_c, 0, 73, 64
3, 26208, Note_on_c, 0, 73, 127
3, 26256, Note_off_c, 0, 73, 64
3, 26256, Note_on_c, 0, 70, 127
3, 26304, Note_off_c, 0, 70, 64
3, 26304, Note_on_c, 0, 73, 127
3, 26352, Note_off_c, 0, 73, 64
3, 26352, Note_on_c, 0, 70, 127
3, 26400, Note_off_c, 0, 70, 64
3, 26400, Note_on_c, 0, 73, 127
3, 26448, Note_off_c, 0, 73, 64
3, 26448, Note_on_c, 0, 75, 127
3, 26496, Note_off_c, 0, 75, 64
3, 26544, Note_on_c, 0, 70, 127
3, 26592, Note_off_c, 0, 70, 64
3, 26592, Note_on_c, 0, 70, 127
3, 26640, Note_off_c, 0, 70, 64
3, 26640, Note_on_c, 0, 68, 127
3, 26880, Note_off_c, 0, 68, 64
3, 26928, Note_on_c, 0, 70, 127
3, 26976, Note_off_c, 0, 70, 64
3, 26976, Note_on_c, 0, 70, 127
3, 27024, Note_off_c, 0, 70, 64
3, 27024, Note_on_c, 0, 72, 127
3, 27072, Note_off_c, 0, 72, 64
3, 27072, Note_on_c, 0, 73, 127
3, 27120, Note_off_c, 0, 73, 64
3, 27120, Note_on_c, 0, 70, 127
3, 27168, Note_off_c, 0, 70, 64
3, 27168, Note_on_c, 0, 68, 127
3, 27264, Note_off_c, 0, 68, 64
3, 27360, Note_on_c, 0, 72, 127
3, 27360, Note_on_c, 0, 75, 127
3, 27408, Note_off_c, 0, 72, 64
3, 27408, Note_off_c, 0, 75, 64
3, 27408, Note_on_c, 0, 72, 127
3, 27408, Note_on_c, 0, 77, 127
3, 27456, Note_off_c, 0, 72, 64
3, 27456, Note_off_c, 0, 77, 64
3, 27456, Note_on_c, 0, 72, 127
3, 27456, Note_on_c, 0, 77, 127
3, 27552, Note_off_c, 0, 72, 64
3, 27552, Note_off_c, 0, 77, 64
3, 27552, Note_on_c, 0, 72, 127
3, 27552, Note_on_c, 0, 75, 127
3, 27648, Note_off_c, 0, 72, 64
3, 27648, Note_off_c, 0, 75, 64
3, 27648, Note_on_c, 0, 70, 127
3, 27648, Note_on_c, 0, 73, 127
3, 27888, Note_off_c, 0, 70, 64
3, 27888, Note_off_c, 0, 73, 64
3, 27888, Note_on_c, 0, 75, 127
3, 27936, Note_off_c, 0, 75, 64
3, 27936, Note_on_c, 0, 77, 127
3, 27984, Note_off_c, 0, 77, 64
3, 27984, Note_on_c, 0, 73, 127
3, 28032, Note_off_c, 0, 73, 64
3, 28032, Note_on_c, 0, 75, 127
3, 28080, Note_off_c, 0, 75, 64
3, 28080, Note_on_c, 0, 75, 127
3, 28128, Note_off_c, 0, 75, 64
3, 28128, Note_on_c, 0, 75, 127
3, 28176, Note_off_c, 0, 75, 64
3, 28176, Note_on_c, 0, 77, 127
3, 28224, Note_off_c, 0, 77, 64
3, 28224, Note_on_c, 0, 75, 127
3, 28320, Note_off_c, 0, 75, 64
3, 28320, Note_on_c, 0, 68, 127
3, 28416, Note_off_c, 0, 68, 64
3, 28608, Note_on_c, 0, 66, 127
3, 28608, Note_on_c, 0, 70, 127
3, 28656, Note_off_c, 0, 66, 64
3, 28656, Note_off_c, 0, 70, 64
3, 28656, Note_on_c, 0, 66, 127
3, 28656, Note_on_c, 0, 72, 127
3, 28704, Note_off_c, 0, 66, 64
3, 28704, Note_off_c, 0, 72, 64
3, 28704, Note_on_c, 0, 66, 127
3, 28704, Note_on_c, 0, 73, 127
3, 28752, Note_off_c, 0, 66, 64
3, 28752, Note_off_c, 0, 73, 64
3, 28752, Note_on_c, 0, 66, 127
3, 28752, Note_on_c, 0, 70, 127
3, 28800, Note_off_c, 0, 66, 64
3, 28800, Note_off_c, 0, 70, 64
3, 28848, Note_on_c, 0, 72, 127
3, 28848, Note_on_c, 0, 75, 127
3, 28896, Note_off_c, 0, 72, 64
3, 28896, Note_off_c, 0, 75, 64
3, 28896, Note_on_c, 0, 72, 127
3, 28896, Note_on_c, 0, 77, 127
3, 28944, Note_off_c, 0, 72, 64
3, 28944, Note_off_c, 0, 77, 64
3, 28944, Note_on_c, 0, 72, 127
3, 28944, Note_on_c, 0, 75, 127
3, 28992, Note_off_c, 0, 72, 64
3, 28992, Note_off_c, 0, 75, 64
3, 29088, Note_on_c, 0, 68, 127
3, 29112, Note_off_c, 0, 68, 64
3, 29112, Note_on_c, 0, 70, 127
3, 29136, Note_off_c, 0, 70, 64
3, 29136, Note_on_c, 0, 73, 127
3, 29160, Note_off_c, 0, 73, 64
3, 29160, Note_on_c, 0, 70, 127
3, 29184, Note_off_c, 0, 70, 64
3, 29184, Note_on_c, 0, 73, 127
3, 29184, Note_on_c, 0, 77, 127
3, 29256, Note_off_c, 0, 73, 64
3, 29256, Note_off_c, 0, 77, 64
3, 29256, Note_on_c, 0, 73, 127
3, 29256, Note_on_c, 0, 77, 127
3, 29328, Note_off_c, 0, 73, 64
3, 29328, Note_off_c, 0, 77, 64
3, 29328, Note_on_c, 0, 72, 127
3, 29328, Note_on_c, 0, 75, 127
3, 29400, Note_off_c, 0, 72, 64
3, 29400, Note_off_c, 0, 75, 64
3, 29472, Note_on_c, 0, 68, 127
3, 29496, Note_off_c, 0, 68, 64
3, 29496, Note_on_c, 0, 70, 127
3, 29520, Note_off_c, 0, 70, 64
3, 29520, Note_on_c, 0, 73, 127
3, 29544, Note_off_c, 0, 73, 64
3, 29544, Note_on_c, 0, 70, 127
3, 29568, Note_off_c, 0, 70, 64
3, 29568, Note_on_c, 0, 72, 127
3, 29568, Note_on_c, 0, 75, 127
3, 29640, Note_off_c, 0, 72, 64
3, 29640, Note_off_c, 0, 75, 64
3, 29640, Note_on_c, 0, 72, 127
3, 29640, Note_on_c, 0, 75, 127
3, 29712, Note_off_c, 0, 72, 64
3, 29712, Note_off_c, 0, 75, 64
3, 29712, Note_on_c, 0, 70, 127
3, 29712, Note_on_c, 0, 73, 127
3, 29784, Note_off_c, 0, 70, 64
3, 29784, Note_off_c, 0, 73, 64
3, 29856, Note_on_c, 0, 68, 127
3, 29880, Note_off_c, 0, 68, 64
3, 29880, Note_on_c, 0, 70, 127
3, 29904, Note_off_c, 0, 70, 64
3, 29904, Note_on_c, 0, 73, 127
3, 29928, Note_off_c, 0, 73, 64
3, 29928, Note_on_c, 0, 70, 127
3, 29952, Note_off_c, 0, 70, 64
3, 29952, Note_on_c, 0, 70, 127
3, 29952, Note_on_c, 0, 73, 127
3, 30048, Note_off_c, 0, 70, 64
3, 30048, Note_off_c, 0, 73, 64
3, 30048, Note_on_c, 0, 75, 127
3, 30096, Note_off_c, 0, 75, 64
3, 30096, Note_on_c, 0, 68, 127
3, 30096, Note_on_c, 0, 72, 127
3, 30192, Note_off_c, 0, 68, 64
3, 30192, Note_off_c, 0, 72, 64
3, 30192, Note_on_c, 0, 68, 127
3, 30288, Note_off_c, 0, 68, 64
3, 30288, Note_on_c, 0, 68, 127
3, 30336, Note_off_c, 0, 68, 64
3, 30336, Note_on_c, 0, 75, 127
3, 30432, Note_off_c, 0, 75, 64
3, 30432, Note_on_c, 0, 70, 127
3, 30432, Note_on_c, 0, 73, 127
3, 30576, Note_off_c, 0, 70, 64
3, 30576, Note_off_c, 0, 73, 64
3, 30624, Note_on_c, 0, 68, 127
3, 30648, Note_off_c, 0, 68, 64
3, 30648, Note_on_c, 0, 70, 127
3, 30672, Note_off_c, 0, 70, 64
3, 30672, Note_on_c, 0, 73, 127
3, 30696, Note_off_c, 0, 73, 64
3, 30696, Note_on_c, 0, 70, 127
3, 30720, Note_off_c, 0, 70, 64
3, 30720, Note_on_c, 0, 73, 127
3, 30720, Note_on_c, 0, 77, 127
3, 30792, Note_off_c, 0, 73, 64
3, 30792, Note_off_c, 0, 77, 64
3, 30792, Note_on_c, 0, 73, 127
3, 30792, Note_on_c, 0, 77, 127
3, 30864, Note_off_c, 0, 73, 64
3, 30864, Note_off_c, 0, 77, 64
3, 30864, Note_on_c, 0, 72, 127
3, 30864, Note_on_c, 0, 75, 127
3, 30936, Note_off_c, 0, 72, 64
3, 30936, Note_off_c, 0, 75, 64
3, 31008, Note_on_c, 0, 68, 127
3, 31032, Note_off_c, 0, 68, 64
3, 31032, Note_on_c, 0, 70, 127
3, 31056, Note_off_c, 0, 70, 64
3, 31056, Note_on_c, 0, 73, 127
3, 31080, Note_off_c, 0, 73, 64
3, 31080, Note_on_c, 0, 70, 127
3, 31104, Note_off_c, 0, 70, 64
3, 31104, Note_on_c, 0, 75, 127
3, 31104, Note_on_c, 0, 80, 127
3, 31200, Note_off_c, 0, 75, 64
3, 31200, Note_off_c, 0, 80, 64
3, 31200, Note_on_c, 0, 72, 127
3, 31248, Note_off_c, 0, 72, 64
3, 31248, Note_on_c, 0, 70, 127
3, 31248, Note_on_c, 0, 73, 127
3, 31344, Note_off_c, 0, 70, 64
3, 31344, Note_off_c, 0, 73, 64
3, 31392, Note_on_c, 0, 68, 127
3, 31416, Note_off_c, 0, 68, 64
3, 31416, Note_on_c, 0, 70, 127
3, 31440, Note_off_c, 0, 70, 64
3, 31440, Note_on_c, 0, 73, 127
3, 31464, Note_off_c, 0, 73, 64
3, 31464, Note_on_c, 0, 70, 127
3, 31488, Note_off_c, 0, 70, 64
3, 31488, Note_on_c, 0, 70, 127
3, 31488, Note_on_c, 0, 73, 127
3, 31584, Note_off_c, 0, 70, 64
3, 31584, Note_off_c, 0, 73, 64
3, 31584, Note_on_c, 0, 75, 127
3, 31632, Note_off_c, 0, 75, 64
3, 31632, Note_on_c, 0, 68, 127
3, 31632, Note_on_c, 0, 72, 127
3, 31728, Note_off_c, 0, 68, 64
3, 31728, Note_off_c, 0, 72, 64
3, 31728, Note_on_c, 0, 68, 127
3, 31824, Note_off_c, 0, 68, 64
3, 31824, Note_on_c, 0, 68, 127
3, 31872, Note_off_c, 0, 68, 64
3, 31872, Note_on_c, 0, 68, 127
3, 31872, Note_on_c, 0, 72, 127
3, 31872, Note_on_c, 0, 75, 127
3, 31968, Note_off_c, 0, 68, 64
3, 31968, Note_off_c, 0, 72, 64
3, 31968, Note_off_c, 0, 75, 64
3, 31968, Note_on_c, 0, 70, 127
3, 31968, Note_on_c, 0, 73, 127
3, 32160, Note_off_c, 0, 70, 64
3, 32160, Note_off_c, 0, 73, 64
3, 32160, Note_on_c, 0, 68, 127
3, 32184, Note_off_c, 0, 68, 64
3, 32184, Note_on_c, 0, 70, 127
3, 32208, Note_off_c, 0, 70, 64
3, 32208, Note_on_c, 0, 73, 127
3, 32232, Note_off_c, 0, 73, 64
3, 32232, Note_on_c, 0, 70, 127
3, 32256, Note_off_c, 0, 70, 64
3, 32256, Note_on_c, 0, 73, 127
3, 32256, Note_on_c, 0, 77, 127
3, 32328, Note_off_c, 0, 73, 64
3, 32328, Note_off_c, 0, 77, 64
3, 32328, Note_on_c, 0, 73, 127
3, 32328, Note_on_c, 0, 77, 127
3, 32400, Note_off_c, 0, 73, 64
3, 32400, Note_off_c, 0, 77, 64
3, 32400, Note_on_c, 0, 72, 127
3, 32400, Note_on_c, 0, 75, 127
3, 32472, Note_off_c, 0, 72, 64
3, 32472, Note_off_c, 0, 75, 64
3, 32544, Note_on_c, 0, 68, 127
3, 32568, Note_off_c, 0, 68, 64
3, 32568, Note_on_c, 0, 70, 127
3, 32592, Note_off_c, 0, 70, 64
3, 32592, Note_on_c, 0, 73, 127
3, 32616, Note_off_c, 0, 73, 64
3, 32616, Note_on_c, 0, 70, 127
3, 32640, Note_off_c, 0, 70, 64
3, 32640, Note_on_c, 0, 72, 127
3, 32640, Note_on_c, 0, 75, 127
3, 32712, Note_off_c, 0, 72, 64
3, 32712, Note_off_c, 0, 75, 64
3, 32712, Note_on_c, 0, 72, 127
3, 32712, Note_on_c, 0, 75, 127
3, 32784, Note_off_c, 0, 72, 64
3, 32784, Note_off_c, 0, 75, 64
3, 32784, Note_on_c, 0, 70, 127
3, 32784, Note_on_c, 0, 73, 127
3, 32856, Note_off_c, 0, 70, 64
3, 32856, Note_off_c, 0, 73, 64
3, 32928, Note_on_c, 0, 68, 127
3, 32952, Note_off_c, 0, 68, 64
3, 32952, Note_on_c, 0, 70, 127
3, 32976, Note_off_c, 0, 70, 64
3, 32976, Note_on_c, 0, 73, 127
3, 33000, Note_off_c, 0, 73, 64
3, 33000, Note_on_c, 0, 70, 127
3, 33024, Note_off_c, 0, 70, 64
3, 33024, Note_on_c, 0, 70, 127
3, 33024, Note_on_c, 0, 73, 127
3, 33120, Note_off_c, 0, 70, 64
3, 33120, Note_off_c, 0, 73, 64
3, 33120, Note_on_c, 0, 75, 127
3, 33168, Note_off_c, 0, 75, 64
3, 33168, Note_on_c, 0, 68, 127
3, 33168, Note_on_c, 0, 72, 127
3, 33264, Note_off_c, 0, 68, 64
3, 33264, Note_off_c, 0, 72, 64
3, 33264, Note_on_c, 0, 68, 127
3, 33360, Note_off_c, 0, 68, 64
3, 33360, Note_on_c, 0, 68, 127
3, 33408, Note_off_c, 0, 68, 64
3, 33408, Note_on_c, 0, 75, 127
3, 33504, Note_off_c, 0, 75, 64
3, 33504, Note_on_c, 0, 70, 127
3, 33504, Note_on_c, 0, 73, 127
3, 33648, Note_off_c, 0, 70, 64
3, 33648, Note_off_c, 0, 73, 64
3, 33696, Note_on_c, 0, 68, 127
3, 33720, Note_off_c, 0, 68, 64
3, 33720, Note_on_c, 0, 70, 127
3, 33744, Note_off_c, 0, 70, 64
3, 33744, Note_on_c, 0, 73, 127
3, 33768, Note_off_c, 0, 73, 64
3, 33768, Note_on_c, 0, 70, 127
3, 33792, Note_off_c, 0, 70, 64
3, 33792, Note_on_c, 0, 73, 127
3, 33792, Note_on_c, 0, 77, 127
3, 33864, Note_off_c, 0, 73, 64
3, 33864, Note_off_c, 0, 77, 64
3, 33864, Note_on_c, 0, 73, 127
3, 33864, Note_on_c, 0, 77, 127
3, 33936, Note_off_c, 0, 73, 64
3, 33936, Note_off_c, 0, 77, 64
3, 33936, Note_on_c, 0, 72, 127
3, 33936, Note_on_c, 0, 75, 127
3, 34008, Note_off_c, 0, 72, 64
3, 34008, Note_off_c, 0, 75, 64
3, 34080, Note_on_c, 0, 68, 127
3, 34104, Note_off_c, 0, 68, 64
3, 34104, Note_on_c, 0, 70, 127
3, 34128, Note_off_c, 0, 70, 64
3, 34128, Note_on_c, 0, 73, 127
3, 34152, Note_off_c, 0, 73, 64
3, 34152, Note_on_c, 0, 70, 127
3, 34176, Note_off_c, 0, 70, 64
3, 34176, Note_on_c, 0, 75, 127
3, 34176, Note_on_c, 0, 80, 127
3, 34272, Note_off_c, 0, 75, 64
3, 34272, Note_off_c, 0, 80, 64
3, 34272, Note_on_c, 0, 72, 127
3, 34320, Note_off_c, 0, 72, 64
3, 34320, Note_on_c, 0, 70, 127
3, 34320, Note_on_c, 0, 73, 127
3, 34416, Note_off_c, 0, 70, 64
3, 34416, Note_off_c, 0, 73, 64
3, 34464, Note_on_c, 0, 68, 127
3, 34488, Note_off_c, 0, 68, 64
3, 34488, Note_on_c, 0, 70, 127
3, 34512, Note_off_c, 0, 70, 64
3, 34512, Note_on_c, 0, 73, 127
3, 34536, Note_off_c, 0, 73, 64
3, 34536, Note_on_c, 0, 70, 127
3, 34560, Note_off_c, 0, 70, 64
3, 34560, Note_on_c, 0, 70, 127
3, 34560, Note_on_c, 0, 73, 127
3, 34656, Note_off_c, 0, 70, 64
3, 34656, Note_off_c, 0, 73, 64
3, 34656, Note_on_c, 0, 75, 127
3, 34704, Note_off_c, 0, 75, 64
3, 34704, Note_on_c, 0, 68, 127
3, 34704, Note_on_c, 0, 72, 127
3, 34800, Note_off_c, 0, 68, 64
3, 34800, Note_off_c, 0, 72, 64
3, 34800, Note_on_c, 0, 68, 127
3, 34896, Note_off_c, 0, 68, 64
3, 34896, Note_on_c, 0, 68, 127
3, 34944, Note_off_c, 0, 68, 64
3, 34944, Note_on_c, 0, 68, 127
3, 34944, Note_on_c, 0, 72, 127
3, 34944, Note_on_c, 0, 75, 127
3, 35040, Note_off_c, 0, 68, 64
3, 35040, Note_off_c, 0, 72, 64
3, 35040, Note_off_c, 0, 75, 64
3, 35040, Note_on_c, 0, 70, 127
3, 35040, Note_on_c, 0, 73, 127
3, 35328, Note_off_c, 0, 70, 64
3, 35328, Note_off_c, 0, 73, 64
3, 35328, End_track
4, 0, Start_track
4, 0, End_track
5, 0, Start_track
5, 0, End_track
6, 0, Start_track
6, 0, End_track
7, 0, Start_track
7, 0, End_track
8, 0, Start_track
8, 0, End_track
9, 0, Start_track
9, 0, End_track
10, 0, Start_track
10, 0, End_track
11, 0, Start_track
11, 0, End_track
12, 0, Start_track
12, 0, End_track
13, 0, Start_track
13, 0, End_track
14, 0, Start_track
14, 0, End_track
15, 0, Start_track
15, 0, End_track
16, 0, Start_track
16, 0, End_track
17, 0, Start_track
17, 0, End_track
0, 0, End_of_file