0, 0, Header, 1, 6, 240
1, 0, Start_track
1, 0, Time_signature, 4, 2, 24, 8
1, 0, Tempo, 250000
1, 0, End_track
2, 0, Start_track
2, 0, Program_c, 0, 0
2, 0, Note_on_c, 0, 55, 60
2, 480, Note_on_c, 0, 59, 60
2, 960, Note_on_c, 0, 62, 60
2, 1020, Note_on_c, 0, 79, 60
2, 1080, Note_off_c, 0, 79, 60
2, 1080, Note_on_c, 0, 81, 60
2, 1320, Note_off_c, 0, 81, 60
2, 1320, Note_on_c, 0, 83, 60
2, 1560, Note_off_c, 0, 55, 60
2, 1560, Note_off_c, 0, 83, 60
2, 1560, Note_on_c, 0, 57, 60
2, 1680, Note_off_c, 0, 59, 60
2, 1680, Note_off_c, 0, 62, 60
2, 1680, Note_on_c, 0, 81, 60
2, 1800, Note_off_c, 0, 57, 60
2, 1800, Note_on_c, 0, 55, 60
2, 1920, Note_off_c, 0, 81, 60
2, 1920, Note_off_c, 0, 55, 60
2, 1920, Note_on_c, 0, 59, 60
2, 2040, Note_on_c, 0, 78, 60
2, 2160, Note_off_c, 0, 78, 60
2, 2160, Note_on_c, 0, 79, 60
2, 2220, Note_off_c, 0, 59, 60
2, 2220, Note_on_c, 0, 57, 60
2, 2280, Note_off_c, 0, 79, 60
2, 2280, Note_off_c, 0, 57, 60
2, 2280, Note_on_c, 0, 55, 60
2, 2400, Note_off_c, 0, 55, 60
2, 2400, Note_on_c, 0, 59, 60
2, 2520, Note_off_c, 0, 59, 60
2, 2520, Note_on_c, 0, 57, 60
2, 2760, Note_on_c, 0, 74, 60
2, 3000, Note_off_c, 0, 57, 60
2, 3000, Note_on_c, 0, 55, 60
2, 3240, Note_off_c, 0, 74, 60
2, 3240, Note_on_c, 0, 72, 60
2, 3600, Note_off_c, 0, 55, 60
2, 3600, Note_off_c, 0, 72, 60
2, 3600, Note_on_c, 0, 57, 60
2, 3660, Note_off_c, 0, 57, 60
2, 3660, Note_on_c, 0, 59, 60
2, 3720, Note_off_c, 0, 59, 60
2, 3720, Note_on_c, 0, 57, 60
2, 3840, Note_on_c, 0, 78, 60
2, 3960, Note_off_c, 0, 57, 60
2, 3960, Note_on_c, 0, 59, 60
2, 4020, Note_off_c, 0, 78, 60
2, 4020, Note_on_c, 0, 76, 60
2, 4080, Note_off_c, 0, 76, 60
2, 4080, Note_on_c, 0, 66, 60
2, 4380, Note_on_c, 0, 71, 60
2, 4440, Note_off_c, 0, 66, 60
2, 4440, Note_on_c, 0, 64, 60
2, 4500, Note_off_c, 0, 64, 60
2, 4500, Note_on_c, 0, 66, 60
2, 4620, Note_off_c, 0, 59, 60
2, 4620, Note_on_c, 0, 61, 60
2, 4710, Note_off_c, 0, 61, 60
2, 4710, Note_on_c, 0, 59, 60
2, 4740, Note_off_c, 0, 66, 60
2, 4740, Note_on_c, 0, 64, 60
2, 4860, Note_off_c, 0, 59, 60
2, 4860, Note_on_c, 0, 67, 60
2, 4920, Note_off_c, 0, 67, 60
2, 4920, Note_on_c, 0, 83, 60
2, 4980, Note_off_c, 0, 83, 60
2, 4980, Note_on_c, 0, 75, 60
2, 5100, Note_off_c, 0, 64, 60
2, 5100, Note_off_c, 0, 75, 60
2, 5100, Note_on_c, 0, 66, 60
2, 5160, Note_off_c, 0, 71, 60
2, 5160, Note_on_c, 0, 79, 60
2, 5190, Note_off_c, 0, 66, 60
2, 5190, Note_off_c, 0, 79, 60
2, 5190, Note_on_c, 0, 57, 60
2, 7020, Note_off_c, 0, 57, 60
2, 7020, Note_on_c, 0, 49, 60
2, 7080, Note_off_c, 0, 49, 60
2, 7080, Note_on_c, 0, 50, 60
2, 7260, Note_off_c, 0, 50, 60
2, 7260, Note_on_c, 0, 52, 60
2, 7380, Note_on_c, 0, 76, 60
2, 7500, Note_off_c, 0, 52, 60
2, 7500, Note_off_c, 0, 76, 60
2, 7500, Note_on_c, 0, 42, 60
2, 7980, Note_on_c, 0, 76, 60
2, 8100, Note_off_c, 0, 76, 60
2, 8100, Note_on_c, 0, 69, 60
2, 8340, Note_off_c, 0, 42, 60
2, 8340, Note_off_c, 0, 69, 60
2, 8340, Note_on_c, 0, 43, 60
2, 8460, Note_off_c, 0, 43, 60
2, 8460, Note_on_c, 0, 50, 60
2, 8820, Note_off_c, 0, 50, 60
2, 8820, Note_on_c, 0, 43, 60
2, 9180, Note_off_c, 0, 43, 60
2, 9180, Note_on_c, 0, 50, 60
2, 9300, Note_off_c, 0, 50, 60
2, 9300, Note_on_c, 0, 57, 60
2, 9420, Note_off_c, 0, 57, 60
2, 9420, Note_on_c, 0, 59, 60
2, 9660, Note_off_c, 0, 59, 60
2, 9660, Note_on_c, 0, 57, 60
2, 9900, Note_off_c, 0, 57, 60
2, 9900, Note_on_c, 0, 59, 60
2, 10020, Note_on_c, 0, 78, 60
2, 10140, Note_off_c, 0, 59, 60
2, 10140, Note_off_c, 0, 78, 60
2, 10140, Note_on_c, 0, 61, 60
2, 10380, Note_off_c, 0, 61, 60
2, 10380, Note_on_c, 0, 62, 60
2, 10500, Note_off_c, 0, 62, 60
2, 10500, Note_on_c, 0, 52, 60
2, 10620, Note_off_c, 0, 52, 60
2, 10620, Note_on_c, 0, 57, 60
2, 10740, Note_off_c, 0, 57, 60
2, 10740, Note_on_c, 0, 54, 60
2, 10860, Note_on_c, 0, 74, 60
2, 10980, Note_off_c, 0, 74, 60
2, 10980, Note_on_c, 0, 78, 60
2, 11100, Note_off_c, 0, 54, 60
2, 11100, Note_off_c, 0, 78, 60
2, 11100, Note_on_c, 0, 52, 60
2, 11220, Note_off_c, 0, 52, 60
2, 11220, Note_on_c, 0, 54, 60
2, 11280, Note_on_c, 0, 78, 60
2, 11580, Note_off_c, 0, 54, 60
2, 11580, Note_off_c, 0, 78, 60
2, 11580, Note_on_c, 0, 40, 60
2, 11700, Note_on_c, 0, 78, 60
2, 11820, Note_off_c, 0, 40, 60
2, 11820, Note_on_c, 0, 69, 60
2, 11940, Note_off_c, 0, 69, 60
2, 11940, Note_on_c, 0, 59, 60
2, 12060, Note_off_c, 0, 78, 60
2, 12060, Note_on_c, 0, 79, 60
2, 12180, Note_off_c, 0, 79, 60
2, 12180, Note_on_c, 0, 78, 60
2, 12300, Note_off_c, 0, 59, 60
2, 12300, Note_off_c, 0, 78, 60
2, 12300, Note_on_c, 0, 57, 60
2, 12420, Note_on_c, 0, 78, 60
2, 12540, Note_off_c, 0, 78, 60
2, 12540, Note_on_c, 0, 79, 60
2, 12900, Note_off_c, 0, 57, 60
2, 12900, Note_on_c, 0, 59, 60
2, 13020, Note_off_c, 0, 79, 60
2, 13020, Note_off_c, 0, 59, 60
2, 13020, Note_on_c, 0, 57, 60
2, 13140, Note_on_c, 0, 76, 60
2, 13260, Note_off_c, 0, 57, 60
2, 13260, Note_off_c, 0, 76, 60
2, 13260, Note_on_c, 0, 61, 60
2, 13500, Note_off_c, 0, 61, 60
2, 13500, Note_on_c, 0, 62, 60
2, 13860, Note_on_c, 0, 67, 60
2, 13980, Note_off_c, 0, 67, 60
2, 13980, Note_on_c, 0, 66, 60
2, 14100, Note_off_c, 0, 66, 60
2, 14100, Note_on_c, 0, 69, 60
2, 14220, Note_off_c, 0, 62, 60
2, 14220, Note_on_c, 0, 67, 60
2, 14340, Note_off_c, 0, 67, 60
2, 14340, Note_on_c, 0, 50, 60
2, 14460, Note_off_c, 0, 69, 60
2, 14460, Note_on_c, 0, 72, 60
2, 14580, Note_off_c, 0, 72, 60
2, 14580, Note_on_c, 0, 71, 60
2, 14700, Note_off_c, 0, 71, 60
2, 14700, Note_on_c, 0, 74, 60
2, 14820, Note_off_c, 0, 50, 60
2, 14820, Note_on_c, 0, 52, 60
2, 14940, Note_off_c, 0, 52, 60
2, 14940, Note_on_c, 0, 54, 60
2, 15060, Note_on_c, 0, 69, 60
2, 15180, Note_off_c, 0, 54, 60
2, 15180, Note_on_c, 0, 59, 60
2, 15420, Note_off_c, 0, 59, 60
2, 15420, Note_on_c, 0, 60, 60
2, 15540, Note_off_c, 0, 69, 60
2, 15540, Note_off_c, 0, 60, 60
2, 15540, Note_on_c, 0, 59, 60
2, 15780, Note_off_c, 0, 74, 60
2, 15780, Note_off_c, 0, 59, 60
2, 15780, Note_on_c, 0, 60, 60
2, 15900, Note_off_c, 0, 60, 60
2, 15900, Note_on_c, 0, 59, 60
2, 16020, Note_off_c, 0, 59, 60
2, 16020, Note_on_c, 0, 57, 60
2, 16140, Note_off_c, 0, 57, 60
2, 16140, Note_on_c, 0, 59, 60
2, 16380, Note_off_c, 0, 59, 60
2, 16380, Note_on_c, 0, 57, 60
2, 16500, Note_off_c, 0, 57, 60
2, 16500, Note_on_c, 0, 59, 60
2, 16620, Note_off_c, 0, 59, 60
2, 16620, Note_on_c, 0, 54, 60
2, 16740, Note_off_c, 0, 54, 60
2, 16740, Note_on_c, 0, 55, 60
2, 16860, Note_on_c, 0, 59, 60
2, 16980, Note_off_c, 0, 55, 60
2, 16980, Note_on_c, 0, 45, 60
2, 17100, Note_off_c, 0, 45, 60
2, 17100, Note_on_c, 0, 43, 60
2, 17220, Note_off_c, 0, 59, 60
2, 17220, Note_on_c, 0, 57, 60
2, 17340, Note_off_c, 0, 57, 60
2, 17340, Note_on_c, 0, 59, 60
2, 17460, Note_on_c, 0, 64, 60
2, 17580, Note_off_c, 0, 59, 60
2, 17580, Note_on_c, 0, 60, 60
2, 17700, Note_off_c, 0, 64, 60
2, 17700, Note_on_c, 0, 67, 60
2, 17820, Note_off_c, 0, 43, 60
2, 17820, Note_off_c, 0, 60, 60
2, 17820, Note_off_c, 0, 67, 60
2, 17820, Note_on_c, 0, 42, 60
2, 18090, Note_on_c, 0, 62, 60
2, 18180, Note_off_c, 0, 42, 60
2, 18180, Note_off_c, 0, 62, 60
2, 18180, Note_on_c, 0, 50, 60
2, 18240, Note_on_c, 0, 72, 60
2, 18300, Note_off_c, 0, 50, 60
2, 18300, Note_on_c, 0, 66, 60
2, 18360, Note_off_c, 0, 66, 60
2, 18360, Note_on_c, 0, 67, 60
2, 18450, Note_off_c, 0, 67, 60
2, 18450, Note_on_c, 0, 78, 60
2, 18480, Note_off_c, 0, 78, 60
2, 18480, Note_on_c, 0, 79, 60
2, 18510, Note_off_c, 0, 79, 60
2, 18510, Note_on_c, 0, 67, 60
2, 18570, Note_on_c, 0, 79, 60
2, 18690, Note_off_c, 0, 67, 60
2, 18690, Note_off_c, 0, 79, 60
2, 18690, Note_on_c, 0, 78, 60
2, 18720, Note_off_c, 0, 78, 60
2, 18720, Note_on_c, 0, 79, 60
2, 18750, Note_on_c, 0, 67, 60
2, 18810, Note_off_c, 0, 72, 60
2, 18810, Note_off_c, 0, 79, 60
2, 18810, Note_off_c, 0, 67, 60
2, 18810, Note_on_c, 0, 71, 60
2, 18840, Note_on_c, 0, 79, 60
2, 18930, Note_off_c, 0, 79, 60
2, 18930, Note_on_c, 0, 78, 60
2, 19290, Note_off_c, 0, 71, 60
2, 19290, Note_on_c, 0, 76, 60
2, 19350, Note_off_c, 0, 76, 60
2, 19350, Note_on_c, 0, 74, 60
2, 19410, Note_off_c, 0, 78, 60
2, 19410, Note_off_c, 0, 74, 60
2, 19410, Note_on_c, 0, 55, 60
2, 19470, Note_on_c, 0, 74, 60
2, 19530, Note_off_c, 0, 74, 60
2, 19530, Note_on_c, 0, 76, 60
2, 19590, Note_off_c, 0, 76, 60
2, 19590, Note_on_c, 0, 74, 60
2, 19650, Note_off_c, 0, 74, 60
2, 19650, Note_on_c, 0, 76, 60
2, 19710, Note_off_c, 0, 76, 60
2, 19710, Note_on_c, 0, 74, 60
2, 19770, Note_off_c, 0, 74, 60
2, 19770, Note_on_c, 0, 79, 60
2, 19830, Note_off_c, 0, 79, 60
2, 19830, Note_on_c, 0, 78, 60
2, 19890, Note_off_c, 0, 78, 60
2, 19890, Note_on_c, 0, 79, 60
2, 19950, Note_off_c, 0, 79, 60
2, 19950, Note_on_c, 0, 78, 60
2, 20010, Note_off_c, 0, 78, 60
2, 20010, Note_on_c, 0, 79, 60
2, 20130, Note_off_c, 0, 55, 60
2, 20130, Note_off_c, 0, 79, 60
2, 20130, Note_on_c, 0, 62, 60
2, 20250, Note_on_c, 0, 76, 60
2, 20370, Note_off_c, 0, 76, 60
2, 20370, Note_on_c, 0, 84, 60
2, 20400, Note_off_c, 0, 84, 60
2, 20400, Note_on_c, 0, 83, 60
2, 20490, Note_off_c, 0, 83, 60
2, 20490, Note_on_c, 0, 86, 60
2, 20610, Note_off_c, 0, 86, 60
2, 20610, Note_on_c, 0, 78, 60
2, 20730, Note_off_c, 0, 62, 60
2, 20730, Note_on_c, 0, 50, 60
2, 20850, Note_off_c, 0, 50, 60
2, 20850, Note_on_c, 0, 55, 60
2, 21090, Note_off_c, 0, 78, 60
2, 21090, Note_off_c, 0, 55, 60
2, 21090, Note_on_c, 0, 59, 60
2, 21210, Note_off_c, 0, 59, 60
2, 21210, Note_on_c, 0, 60, 60
2, 21330, Note_off_c, 0, 60, 60
2, 21330, Note_on_c, 0, 57, 60
2, 21450, Note_on_c, 0, 79, 60
2, 21570, Note_off_c, 0, 79, 60
2, 21570, Note_on_c, 0, 73, 60
2, 21690, Note_off_c, 0, 57, 60
2, 21690, Note_on_c, 0, 54, 60
2, 21810, Note_off_c, 0, 73, 60
2, 21810, Note_on_c, 0, 74, 60
2, 22050, Note_off_c, 0, 54, 60
2, 22050, Note_on_c, 0, 52, 60
2, 22170, Note_off_c, 0, 74, 60
2, 22170, Note_off_c, 0, 52, 60
2, 22170, Note_on_c, 0, 54, 60
2, 22290, Note_off_c, 0, 54, 60
2, 22290, Note_on_c, 0, 52, 60
2, 22410, Note_on_c, 0, 69, 60
2, 22650, Note_off_c, 0, 52, 60
2, 22650, Note_off_c, 0, 69, 60
2, 22650, Note_on_c, 0, 57, 60
2, 22950, Note_off_c, 0, 57, 60
2, 22950, Note_on_c, 0, 62, 60
2, 23010, Note_on_c, 0, 50, 60
2, 23160, Note_off_c, 0, 62, 60
2, 23160, Note_on_c, 0, 60, 60
2, 23250, Note_off_c, 0, 60, 60
2, 23250, Note_on_c, 0, 59, 60
2, 23490, Note_off_c, 0, 50, 60
2, 23490, Note_off_c, 0, 59, 60
2, 23490, Note_on_c, 0, 38, 60
2, 23730, Note_off_c, 0, 38, 60
2, 23730, Note_on_c, 0, 63, 60
2, 23850, Note_on_c, 0, 66, 60
2, 23970, Note_off_c, 0, 63, 60
2, 23970, Note_off_c, 0, 66, 60
2, 23970, Note_on_c, 0, 64, 60
2, 24090, Note_on_c, 0, 66, 60
2, 24210, Note_off_c, 0, 64, 60
2, 24210, Note_off_c, 0, 66, 60
2, 24210, Note_on_c, 0, 67, 60
2, 24270, Note_on_c, 0, 75, 60
2, 24330, Note_off_c, 0, 67, 60
2, 24330, Note_on_c, 0, 66, 60
2, 24390, Note_off_c, 0, 75, 60
2, 24390, Note_off_c, 0, 66, 60
2, 24390, Note_on_c, 0, 64, 60
2, 24450, Note_off_c, 0, 64, 60
2, 24450, Note_on_c, 0, 60, 60
2, 24510, Note_off_c, 0, 60, 60
2, 24510, Note_on_c, 0, 59, 60
2, 24570, Note_off_c, 0, 59, 60
2, 24570, Note_on_c, 0, 57, 60
2, 24630, Note_on_c, 0, 69, 60
2, 24690, Note_off_c, 0, 57, 60
2, 24690, Note_off_c, 0, 69, 60
2, 24690, Note_on_c, 0, 67, 60
2, 24750, Note_off_c, 0, 67, 60
2, 24750, Note_on_c, 0, 69, 60
2, 24810, Note_on_c, 0, 63, 60
2, 24930, Note_off_c, 0, 69, 60
2, 24930, Note_off_c, 0, 63, 60
2, 24930, Note_on_c, 0, 64, 60
2, 25170, Note_on_c, 0, 62, 60
2, 25290, Note_off_c, 0, 64, 60
2, 25290, Note_on_c, 0, 66, 60
2, 25410, Note_off_c, 0, 62, 60
2, 25410, Note_off_c, 0, 66, 60
2, 25410, Note_on_c, 0, 59, 60
2, 25440, Note_on_c, 0, 71, 60
2, 25530, Note_off_c, 0, 71, 60
2, 25530, Note_on_c, 0, 66, 60
2, 25650, Note_off_c, 0, 66, 60
2, 25650, Note_on_c, 0, 67, 60
2, 25770, Note_on_c, 0, 71, 60
2, 25890, Note_off_c, 0, 59, 60
2, 26010, Note_off_c, 0, 71, 60
2, 26010, Note_on_c, 0, 72, 60
2, 26130, Note_on_c, 0, 65, 60
2, 26250, Note_off_c, 0, 72, 60
2, 26250, Note_off_c, 0, 65, 60
2, 26250, Note_on_c, 0, 71, 60
2, 26370, Note_off_c, 0, 71, 60
2, 26370, Note_on_c, 0, 72, 60
2, 26490, Note_off_c, 0, 67, 60
2, 26490, Note_on_c, 0, 69, 60
2, 26610, Note_off_c, 0, 72, 60
2, 26610, Note_on_c, 0, 78, 60
2, 26730, Note_off_c, 0, 69, 60
2, 26730, Note_on_c, 0, 72, 60
2, 26850, Note_off_c, 0, 78, 60
2, 26850, Note_off_c, 0, 72, 60
2, 26850, Note_on_c, 0, 71, 60
2, 26970, Note_off_c, 0, 71, 60
2, 26970, Note_on_c, 0, 67, 60
2, 27090, Note_on_c, 0, 79, 60
2, 27210, Note_off_c, 0, 67, 60
2, 27210, Note_off_c, 0, 79, 60
2, 27210, Note_on_c, 0, 71, 60
2, 27330, Note_off_c, 0, 71, 60
2, 27330, Note_on_c, 0, 69, 60
2, 27360, Note_off_c, 0, 69, 60
2, 27360, Note_on_c, 0, 66, 60
2, 27420, Note_off_c, 0, 66, 60
2, 27420, Note_on_c, 0, 64, 60
2, 27540, Note_on_c, 0, 79, 60
2, 27600, Note_off_c, 0, 79, 60
2, 27600, Note_on_c, 0, 78, 60
2, 27660, Note_off_c, 0, 78, 60
2, 27660, Note_on_c, 0, 76, 60
2, 27780, Note_off_c, 0, 64, 60
2, 27780, Note_off_c, 0, 76, 60
2, 27780, Note_on_c, 0, 67, 60
2, 27900, Note_off_c, 0, 67, 60
2, 27900, Note_on_c, 0, 66, 60
2, 28020, Note_off_c, 0, 66, 60
2, 28020, Note_on_c, 0, 67, 60
2, 28140, Note_off_c, 0, 67, 60
2, 28140, Note_on_c, 0, 64, 60
2, 28260, Note_off_c, 0, 64, 60
2, 28260, Note_on_c, 0, 67, 60
2, 28380, Note_on_c, 0, 73, 60
2, 28500, Note_off_c, 0, 73, 60
2, 28500, Note_on_c, 0, 76, 60
2, 28740, Note_off_c, 0, 67, 60
2, 28740, Note_off_c, 0, 76, 60
2, 28740, Note_on_c, 0, 66, 60
2, 28800, Note_off_c, 0, 66, 60
2, 28800, Note_on_c, 0, 62, 60
2, 28860, Note_off_c, 0, 62, 60
2, 28860, Note_on_c, 0, 50, 60
2, 28980, Note_off_c, 0, 50, 60
2, 28980, Note_on_c, 0, 54, 60
2, 29100, Note_off_c, 0, 54, 60
2, 29100, Note_on_c, 0, 62, 60
2, 29220, Note_off_c, 0, 62, 60
2, 29220, Note_on_c, 0, 67, 60
2, 29340, Note_off_c, 0, 67, 60
2, 29340, Note_on_c, 0, 66, 60
2, 29460, Note_off_c, 0, 66, 60
2, 29460, Note_on_c, 0, 64, 60
2, 29580, Note_off_c, 0, 64, 60
2, 29580, Note_on_c, 0, 66, 60
2, 29700, Note_off_c, 0, 66, 60
2, 29700, Note_on_c, 0, 67, 60
2, 29820, Note_on_c, 0, 79, 60
2, 30180, Note_off_c, 0, 67, 60
2, 30180, Note_off_c, 0, 79, 60
2, 30180, Note_on_c, 0, 61, 60
2, 30300, Note_off_c, 0, 61, 60
2, 30300, Note_on_c, 0, 59, 60
2, 30330, Note_off_c, 0, 59, 60
2, 30330, Note_on_c, 0, 60, 60
2, 30420, Note_off_c, 0, 60, 60
2, 30420, Note_on_c, 0, 62, 60
2, 30540, Note_off_c, 0, 62, 60
2, 30540, Note_on_c, 0, 66, 60
2, 30660, Note_off_c, 0, 66, 60
2, 30660, Note_on_c, 0, 62, 60
2, 31500, Note_off_c, 0, 62, 60
2, 31500, Note_on_c, 0, 60, 60
2, 31620, Note_off_c, 0, 60, 60
2, 31620, Note_on_c, 0, 59, 60
2, 31740, Note_off_c, 0, 59, 60
2, 31740, Note_on_c, 0, 62, 60
2, 31860, Note_on_c, 0, 71, 60
2, 31980, Note_off_c, 0, 71, 60
2, 31980, Note_on_c, 0, 67, 60
2, 32100, Note_off_c, 0, 67, 60
2, 32100, Note_on_c, 0, 66, 60
2, 32220, Note_off_c, 0, 62, 60
2, 32220, Note_off_c, 0, 66, 60
2, 32220, Note_on_c, 0, 57, 60
2, 32310, Note_on_c, 0, 61, 60
2, 32340, Note_off_c, 0, 57, 60
2, 32340, Note_off_c, 0, 61, 60
2, 32340, Note_on_c, 0, 50, 60
2, 32400, Note_on_c, 0, 61, 60
2, 32460, Note_off_c, 0, 61, 60
2, 32460, Note_on_c, 0, 62, 60
2, 32520, Note_off_c, 0, 62, 60
2, 32520, Note_on_c, 0, 57, 60
2, 32580, Note_on_c, 0, 67, 60
2, 32640, Note_off_c, 0, 67, 60
2, 32640, Note_on_c, 0, 66, 60
2, 33000, Note_off_c, 0, 50, 60
2, 33000, Note_off_c, 0, 66, 60
2, 33000, Note_on_c, 0, 54, 60
2, 33120, Note_off_c, 0, 54, 60
2, 33120, Note_on_c, 0, 52, 60
2, 33360, Note_off_c, 0, 52, 60
2, 33360, Note_on_c, 0, 50, 60
2, 33600, Note_off_c, 0, 50, 60
2, 33600, Note_on_c, 0, 52, 60
2, 33720, Note_off_c, 0, 52, 60
2, 33720, Note_on_c, 0, 61, 60
2, 33750, Note_off_c, 0, 61, 60
2, 33750, Note_on_c, 0, 67, 60
2, 34980, Note_off_c, 0, 57, 60
2, 34980, Note_on_c, 0, 50, 60
2, 35100, Note_on_c, 0, 74, 60
2, 35160, Note_off_c, 0, 74, 60
2, 35160, Note_on_c, 0, 73, 60
2, 35340, Note_off_c, 0, 73, 60
2, 35340, Note_on_c, 0, 74, 60
2, 35400, Note_off_c, 0, 50, 60
2, 35400, Note_off_c, 0, 74, 60
2, 35400, Note_on_c, 0, 62, 60
2, 35460, Note_off_c, 0, 62, 60
2, 35460, Note_on_c, 0, 60, 60
2, 35550, Note_off_c, 0, 60, 60
2, 35550, Note_on_c, 0, 59, 60
2, 35700, Note_off_c, 0, 67, 60
2, 35700, Note_on_c, 0, 65, 60
2, 35820, Note_off_c, 0, 65, 60
2, 35820, Note_on_c, 0, 67, 60
2, 35940, Note_off_c, 0, 59, 60
2, 35940, Note_off_c, 0, 67, 60
2, 35940, Note_on_c, 0, 54, 60
2, 36060, Note_off_c, 0, 54, 60
2, 36060, Note_on_c, 0, 55, 60
2, 36180, Note_on_c, 0, 69, 60
2, 36210, Note_off_c, 0, 55, 60
2, 36210, Note_on_c, 0, 43, 60
2, 36300, Note_off_c, 0, 69, 60
2, 36300, Note_on_c, 0, 72, 60
2, 36420, Note_off_c, 0, 43, 60
2, 36420, Note_off_c, 0, 72, 60
2, 36420, Note_on_c, 0, 55, 60
2, 36660, Note_on_c, 0, 72, 60
2, 36780, Note_off_c, 0, 55, 60
2, 36780, Note_off_c, 0, 72, 60
2, 36780, Note_on_c, 0, 60, 60
2, 36900, Note_off_c, 0, 60, 60
2, 36900, Note_on_c, 0, 63, 60
2, 36960, Note_on_c, 0, 78, 60
2, 37020, Note_off_c, 0, 63, 60
2, 37020, Note_off_c, 0, 78, 60
2, 37020, Note_on_c, 0, 59, 60
2, 37140, Note_off_c, 0, 59, 60
2, 37140, Note_on_c, 0, 57, 60
2, 37260, Note_off_c, 0, 57, 60
2, 37260, Note_on_c, 0, 50, 60
2, 37380, Note_off_c, 0, 50, 60
2, 37380, Note_on_c, 0, 48, 60
2, 37440, Note_on_c, 0, 78, 60
2, 37500, Note_off_c, 0, 78, 60
2, 37500, Note_on_c, 0, 79, 60
2, 37560, Note_off_c, 0, 79, 60
2, 37560, Note_on_c, 0, 78, 60
2, 37590, Note_off_c, 0, 48, 60
2, 37590, Note_on_c, 0, 47, 60
2, 37620, Note_off_c, 0, 78, 60
2, 37620, Note_on_c, 0, 79, 60
2, 37680, Note_off_c, 0, 79, 60
2, 37680, Note_on_c, 0, 78, 60
2, 37740, Note_off_c, 0, 78, 60
2, 37740, Note_on_c, 0, 75, 60
2, 37860, Note_off_c, 0, 75, 60
2, 37860, Note_on_c, 0, 76, 60
2, 38220, Note_off_c, 0, 76, 60
2, 38220, Note_on_c, 0, 71, 60
2, 38340, Note_off_c, 0, 47, 60
2, 38340, Note_on_c, 0, 50, 60
2, 38460, Note_off_c, 0, 50, 60
2, 38460, Note_on_c, 0, 52, 60
2, 38580, Note_off_c, 0, 71, 60
2, 38580, Note_on_c, 0, 72, 60
2, 38700, Note_off_c, 0, 52, 60
2, 38700, Note_on_c, 0, 50, 60
2, 38820, Note_off_c, 0, 72, 60
2, 38820, Note_on_c, 0, 74, 60
2, 38940, Note_off_c, 0, 50, 60
2, 38940, Note_off_c, 0, 74, 60
2, 38940, Note_on_c, 0, 52, 60
2, 39060, Note_off_c, 0, 52, 60
2, 39060, Note_on_c, 0, 50, 60
2, 39120, Note_on_c, 0, 69, 60
2, 39210, Note_off_c, 0, 50, 60
2, 39210, Note_off_c, 0, 69, 60
2, 39210, Note_on_c, 0, 62, 60
2, 39330, Note_off_c, 0, 62, 60
2, 39330, Note_on_c, 0, 52, 60
2, 39450, Note_off_c, 0, 52, 60
2, 39450, Note_on_c, 0, 57, 60
2, 39570, Note_on_c, 0, 71, 60
2, 39690, Note_off_c, 0, 57, 60
2, 39690, Note_on_c, 0, 67, 60
2, 40170, Note_off_c, 0, 71, 60
2, 40170, Note_off_c, 0, 67, 60
2, 40170, Note_on_c, 0, 62, 60
2, 40290, Note_off_c, 0, 62, 60
2, 40290, Note_on_c, 0, 59, 60
2, 40410, Note_off_c, 0, 59, 60
2, 40410, Note_on_c, 0, 55, 60
2, 40530, Note_off_c, 0, 55, 60
2, 40530, Note_on_c, 0, 54, 60
2, 40650, Note_on_c, 0, 72, 60
2, 40770, Note_off_c, 0, 54, 60
2, 40770, Note_off_c, 0, 72, 60
2, 40770, Note_on_c, 0, 55, 60
2, 40830, Note_on_c, 0, 69, 60
2, 40890, Note_off_c, 0, 69, 60
2, 40890, Note_on_c, 0, 71, 60
2, 40920, Note_off_c, 0, 55, 60
2, 40920, Note_on_c, 0, 64, 60
2, 40980, Note_off_c, 0, 64, 60
2, 40980, Note_on_c, 0, 66, 60
2, 41040, Note_off_c, 0, 71, 60
2, 41040, Note_off_c, 0, 66, 60
2, 41040, Note_on_c, 0, 62, 60
2, 41100, Note_off_c, 0, 62, 60
2, 41100, Note_on_c, 0, 64, 60
2, 41160, Note_off_c, 0, 64, 60
2, 41160, Note_on_c, 0, 66, 60
2, 41220, Note_off_c, 0, 66, 60
2, 41220, Note_on_c, 0, 62, 60
2, 41280, Note_off_c, 0, 62, 60
2, 41280, Note_on_c, 0, 67, 60
2, 41400, Note_off_c, 0, 67, 60
2, 41400, Note_on_c, 0, 69, 60
2, 41520, Note_off_c, 0, 69, 60
2, 41520, Note_on_c, 0, 67, 60
2, 41640, Note_off_c, 0, 67, 60
2, 41640, Note_on_c, 0, 69, 60
2, 41700, Note_off_c, 0, 69, 60
2, 41700, Note_on_c, 0, 67, 60
2, 41760, Note_off_c, 0, 67, 60
2, 41760, Note_on_c, 0, 69, 60
2, 41880, Note_off_c, 0, 69, 60
2, 41880, Note_on_c, 0, 71, 60
2, 42000, Note_off_c, 0, 71, 60
2, 42000, Note_on_c, 0, 69, 60
2, 42120, Note_off_c, 0, 69, 60
2, 42120, Note_on_c, 0, 67, 60
2, 42240, Note_off_c, 0, 67, 60
2, 42240, Note_on_c, 0, 66, 60
2, 42360, Note_off_c, 0, 66, 60
2, 42360, Note_on_c, 0, 67, 60
2, 43080, Note_on_c, 0, 64, 60
2, 43200, Note_off_c, 0, 67, 60
2, 43200, Note_off_c, 0, 64, 60
2, 43200, Note_on_c, 0, 69, 60
2, 43260, Note_off_c, 0, 69, 60
2, 43260, Note_on_c, 0, 67, 60
2, 43560, Note_on_c, 0, 79, 60
2, 43680, Note_off_c, 0, 67, 60
2, 43680, Note_off_c, 0, 79, 60
2, 43680, Note_on_c, 0, 64, 60
2, 43800, Note_off_c, 0, 64, 60
2, 43800, Note_on_c, 0, 67, 60
2, 43920, Note_on_c, 0, 76, 60
2, 44040, Note_off_c, 0, 67, 60
2, 44040, Note_off_c, 0, 76, 60
2, 44040, Note_on_c, 0, 55, 60
2, 44160, Note_off_c, 0, 55, 60
2, 44160, Note_on_c, 0, 50, 60
2, 44280, Note_on_c, 0, 69, 60
2, 44400, Note_off_c, 0, 50, 60
2, 44400, Note_off_c, 0, 69, 60
2, 44400, Note_on_c, 0, 54, 60
2, 44640, Note_off_c, 0, 54, 60
2, 44640, Note_on_c, 0, 59, 60
2, 44760, Note_off_c, 0, 59, 60
2, 44760, Note_on_c, 0, 60, 60
2, 44880, Note_off_c, 0, 60, 60
2, 44880, Note_on_c, 0, 66, 60
2, 45000, Note_off_c, 0, 66, 60
2, 45000, Note_on_c, 0, 47, 60
2, 45120, Note_off_c, 0, 47, 60
2, 45120, Note_on_c, 0, 52, 60
2, 45240, Note_off_c, 0, 52, 60
2, 45240, Note_on_c, 0, 59, 60
2, 45300, Note_off_c, 0, 59, 60
2, 45300, End_track
3, 0, Start_track
3, 0, Program_c, 1, 0
3, 0, Note_on_c, 1, 79, 60
3, 960, Note_off_c, 1, 79, 60
3, 960, Note_on_c, 1, 81, 60
3, 1020, Note_off_c, 1, 81, 60
3, 1560, Note_on_c, 1, 84, 60
3, 1680, Note_off_c, 1, 84, 60
3, 1920, Note_on_c, 1, 79, 60
3, 2040, Note_off_c, 1, 79, 60
3, 2280, Note_on_c, 1, 81, 60
3, 2400, Note_off_c, 1, 81, 60
3, 2400, Note_on_c, 1, 83, 60
3, 2520, Note_off_c, 1, 83, 60
3, 2520, Note_on_c, 1, 84, 60
3, 3000, Note_off_c, 1, 84, 60
3, 3000, Note_on_c, 1, 83, 60
3, 3240, Note_off_c, 1, 83, 60
3, 3240, Note_on_c, 1, 81, 60
3, 3600, Note_off_c, 1, 81, 60
3, 3600, Note_on_c, 1, 74, 60
3, 3720, Note_off_c, 1, 74, 60
3, 3720, Note_on_c, 1, 73, 60
3, 4380, Note_off_c, 1, 73, 60
3, 4380, Note_on_c, 1, 75, 60
3, 4740, Note_off_c, 1, 75, 60
3, 4740, Note_on_c, 1, 76, 60
3, 4920, Note_off_c, 1, 76, 60
3, 5100, Note_on_c, 1, 81, 60
3, 5190, Note_on_c, 1, 78, 60
3, 7380, Note_off_c, 1, 81, 60
3, 7380, Note_off_c, 1, 78, 60
3, 7380, Note_on_c, 1, 79, 60
3, 7500, Note_off_c, 1, 79, 60
3, 7500, Note_on_c, 1, 78, 60
3, 7980, Note_off_c, 1, 78, 60
3, 7980, Note_on_c, 1, 79, 60
3, 8340, Note_on_c, 1, 71, 60
3, 8820, Note_off_c, 1, 71, 60
3, 9420, Note_off_c, 1, 79, 60
3, 9420, Note_on_c, 1, 74, 60
3, 9660, Note_off_c, 1, 74, 60
3, 9660, Note_on_c, 1, 78, 60
3, 9900, Note_off_c, 1, 78, 60
3, 9900, Note_on_c, 1, 79, 60
3, 10020, Note_off_c, 1, 79, 60
3, 10140, Note_on_c, 1, 69, 60
3, 10380, Note_off_c, 1, 69, 60
3, 10380, Note_on_c, 1, 71, 60
3, 10500, Note_off_c, 1, 71, 60
3, 10500, Note_on_c, 1, 73, 60
3, 10620, Note_off_c, 1, 73, 60
3, 10620, Note_on_c, 1, 81, 60
3, 10740, Note_off_c, 1, 81, 60
3, 10740, Note_on_c, 1, 78, 60
3, 10860, Note_off_c, 1, 78, 60
3, 11100, Note_on_c, 1, 79, 60
3, 11280, Note_off_c, 1, 79, 60
3, 11580, Note_on_c, 1, 79, 60
3, 11700, Note_off_c, 1, 79, 60
3, 12300, Note_on_c, 1, 79, 60
3, 12420, Note_off_c, 1, 79, 60
3, 13020, Note_on_c, 1, 78, 60
3, 13140, Note_off_c, 1, 78, 60
3, 13260, Note_on_c, 1, 69, 60
3, 13860, Note_off_c, 1, 69, 60
3, 14340, Note_on_c, 1, 66, 60
3, 14820, Note_off_c, 1, 66, 60
3, 14820, Note_on_c, 1, 67, 60
3, 15060, Note_off_c, 1, 67, 60
3, 15540, Note_on_c, 1, 62, 60
3, 15780, Note_on_c, 1, 66, 60
3, 15900, Note_off_c, 1, 66, 60
3, 15900, Note_on_c, 1, 67, 60
3, 16020, Note_off_c, 1, 62, 60
3, 16020, Note_off_c, 1, 67, 60
3, 16020, Note_on_c, 1, 60, 60
3, 16140, Note_off_c, 1, 60, 60
3, 16140, Note_on_c, 1, 62, 60
3, 16380, Note_off_c, 1, 62, 60
3, 16380, Note_on_c, 1, 60, 60
3, 16500, Note_off_c, 1, 60, 60
3, 16500, Note_on_c, 1, 62, 60
3, 16620, Note_on_c, 1, 66, 60
3, 16740, Note_off_c, 1, 66, 60
3, 16740, Note_on_c, 1, 64, 60
3, 16860, Note_off_c, 1, 62, 60
3, 17220, Note_off_c, 1, 64, 60
3, 17220, Note_on_c, 1, 66, 60
3, 17460, Note_off_c, 1, 66, 60
3, 17820, Note_on_c, 1, 63, 60
3, 18090, Note_off_c, 1, 63, 60
3, 18180, Note_on_c, 1, 66, 60
3, 18240, Note_off_c, 1, 66, 60
3, 18510, Note_on_c, 1, 78, 60
3, 18570, Note_off_c, 1, 78, 60
3, 19410, Note_on_c, 1, 76, 60
3, 19470, Note_off_c, 1, 76, 60
3, 20130, Note_on_c, 1, 78, 60
3, 20250, Note_off_c, 1, 78, 60
3, 21090, Note_on_c, 1, 79, 60
3, 21330, Note_off_c, 1, 79, 60
3, 21330, Note_on_c, 1, 78, 60
3, 21450, Note_off_c, 1, 78, 60
3, 22170, Note_on_c, 1, 76, 60
3, 22410, Note_off_c, 1, 76, 60
3, 23970, Note_on_c, 1, 67, 60
3, 24090, Note_off_c, 1, 67, 60
3, 24210, Note_on_c, 1, 76, 60
3, 24270, Note_off_c, 1, 76, 60
3, 24390, Note_on_c, 1, 71, 60
3, 24450, Note_off_c, 1, 71, 60
3, 24450, Note_on_c, 1, 69, 60
3, 24510, Note_off_c, 1, 69, 60
3, 24510, Note_on_c, 1, 71, 60
3, 24570, Note_off_c, 1, 71, 60
3, 24570, Note_on_c, 1, 72, 60
3, 24630, Note_off_c, 1, 72, 60
3, 24690, Note_on_c, 1, 72, 60
3, 24810, Note_off_c, 1, 72, 60
3, 24930, Note_on_c, 1, 67, 60
3, 25050, Note_off_c, 1, 67, 60
3, 25410, Note_on_c, 1, 67, 60
3, 25530, Note_off_c, 1, 67, 60
3, 25530, Note_on_c, 1, 72, 60
3, 25770, Note_off_c, 1, 72, 60
3, 26850, Note_on_c, 1, 79, 60
3, 26970, Note_off_c, 1, 79, 60
3, 26970, Note_on_c, 1, 76, 60
3, 27090, Note_off_c, 1, 76, 60
3, 27210, Note_on_c, 1, 83, 60
3, 27360, Note_off_c, 1, 83, 60
3, 27360, Note_on_c, 1, 81, 60
3, 27420, Note_off_c, 1, 81, 60
3, 27420, Note_on_c, 1, 78, 60
3, 27540, Note_off_c, 1, 78, 60
3, 27780, Note_on_c, 1, 71, 60
3, 27900, Note_off_c, 1, 71, 60
3, 27900, Note_on_c, 1, 69, 60
3, 28020, Note_off_c, 1, 69, 60
3, 28020, Note_on_c, 1, 71, 60
3, 28140, Note_off_c, 1, 71, 60
3, 28140, Note_on_c, 1, 72, 60
3, 28260, Note_off_c, 1, 72, 60
3, 28260, Note_on_c, 1, 71, 60
3, 28380, Note_off_c, 1, 71, 60
3, 28740, Note_on_c, 1, 78, 60
3, 28860, Note_off_c, 1, 78, 60
3, 28860, Note_on_c, 1, 81, 60
3, 29100, Note_off_c, 1, 81, 60
3, 29100, Note_on_c, 1, 78, 60
3, 29220, Note_off_c, 1, 78, 60
3, 29220, Note_on_c, 1, 74, 60
3, 29340, Note_off_c, 1, 74, 60
3, 29340, Note_on_c, 1, 76, 60
3, 29460, Note_off_c, 1, 76, 60
3, 29460, Note_on_c, 1, 79, 60
3, 29700, Note_off_c, 1, 79, 60
3, 29700, Note_on_c, 1, 76, 60
3, 29820, Note_off_c, 1, 76, 60
3, 30180, Note_on_c, 1, 81, 60
3, 30300, Note_off_c, 1, 81, 60
3, 30300, Note_on_c, 1, 79, 60
3, 30540, Note_off_c, 1, 79, 60
3, 30540, Note_on_c, 1, 78, 60
3, 31620, Note_off_c, 1, 78, 60
3, 32220, Note_on_c, 1, 64, 60
3, 32310, Note_off_c, 1, 64, 60
3, 32340, Note_on_c, 1, 58, 60
3, 32520, Note_off_c, 1, 58, 60
3, 32520, Note_on_c, 1, 66, 60
3, 32580, Note_off_c, 1, 66, 60
3, 33000, Note_on_c, 1, 62, 60
3, 33360, Note_off_c, 1, 62, 60
3, 33360, Note_on_c, 1, 60, 60
3, 33600, Note_off_c, 1, 60, 60
3, 33600, Note_on_c, 1, 59, 60
3, 33720, Note_on_c, 1, 73, 60
3, 33750, Note_off_c, 1, 59, 60
3, 35100, Note_off_c, 1, 73, 60
3, 35940, Note_on_c, 1, 69, 60
3, 36060, Note_off_c, 1, 69, 60
3, 36060, Note_on_c, 1, 71, 60
3, 36180, Note_off_c, 1, 71, 60
3, 36420, Note_on_c, 1, 71, 60
3, 36660, Note_off_c, 1, 71, 60
3, 36780, Note_on_c, 1, 71, 60
3, 36900, Note_off_c, 1, 71, 60
3, 36900, Note_on_c, 1, 72, 60
3, 36960, Note_off_c, 1, 72, 60
3, 37020, Note_on_c, 1, 79, 60
3, 37140, Note_off_c, 1, 79, 60
3, 37140, Note_on_c, 1, 81, 60
3, 37260, Note_off_c, 1, 81, 60
3, 37260, Note_on_c, 1, 78, 60
3, 37380, Note_off_c, 1, 78, 60
3, 37380, Note_on_c, 1, 76, 60
3, 37440, Note_off_c, 1, 76, 60
3, 38460, Note_on_c, 1, 67, 60
3, 38940, Note_on_c, 1, 73, 60
3, 39060, Note_off_c, 1, 67, 60
3, 39060, Note_off_c, 1, 73, 60
3, 39060, Note_on_c, 1, 66, 60
3, 39090, Note_off_c, 1, 66, 60
3, 39210, Note_on_c, 1, 71, 60
3, 39330, Note_off_c, 1, 71, 60
3, 39330, Note_on_c, 1, 74, 60
3, 39450, Note_off_c, 1, 74, 60
3, 39450, Note_on_c, 1, 72, 60
3, 39570, Note_off_c, 1, 72, 60
3, 40170, Note_on_c, 1, 74, 60
3, 40290, Note_off_c, 1, 74, 60
3, 40290, Note_on_c, 1, 79, 60
3, 40530, Note_off_c, 1, 79, 60
3, 40530, Note_on_c, 1, 74, 60
3, 40650, Note_off_c, 1, 74, 60
3, 40770, Note_on_c, 1, 71, 60
3, 40830, Note_off_c, 1, 71, 60
3, 41040, Note_on_c, 1, 72, 60
3, 41520, Note_off_c, 1, 72, 60
3, 41700, Note_on_c, 1, 74, 60
3, 41760, Note_off_c, 1, 74, 60
3, 41760, Note_on_c, 1, 73, 60
3, 41880, Note_off_c, 1, 73, 60
3, 41880, Note_on_c, 1, 74, 60
3, 42000, Note_off_c, 1, 74, 60
3, 42000, Note_on_c, 1, 73, 60
3, 42120, Note_off_c, 1, 73, 60
3, 42120, Note_on_c, 1, 71, 60
3, 42240, Note_off_c, 1, 71, 60
3, 42240, Note_on_c, 1, 74, 60
3, 42360, Note_off_c, 1, 74, 60
3, 42360, Note_on_c, 1, 78, 60
3, 43080, Note_off_c, 1, 78, 60
3, 43080, Note_on_c, 1, 79, 60
3, 43200, Note_off_c, 1, 79, 60
3, 43200, Note_on_c, 1, 78, 60
3, 43560, Note_off_c, 1, 78, 60
3, 43680, Note_on_c, 1, 76, 60
3, 43800, Note_off_c, 1, 76, 60
3, 43800, Note_on_c, 1, 71, 60
3, 43920, Note_off_c, 1, 71, 60
3, 44040, Note_on_c, 1, 74, 60
3, 44160, Note_off_c, 1, 74, 60
3, 44160, Note_on_c, 1, 71, 60
3, 44280, Note_off_c, 1, 71, 60
3, 44400, Note_on_c, 1, 67, 60
3, 44640, Note_off_c, 1, 67, 60
3, 44640, Note_on_c, 1, 62, 60
3, 45000, Note_off_c, 1, 62, 60
3, 45000, Note_on_c, 1, 67, 60
3, 45120, Note_off_c, 1, 67, 60
3, 45120, Note_on_c, 1, 64, 60
3, 45240, Note_off_c, 1, 64, 60
3, 45300, End_track
4, 0, Start_track
4, 0, Program_c, 2, 0
4, 3600, Note_on_c, 2, 78, 60
4, 3720, Note_off_c, 2, 78, 60
4, 3720, Note_on_c, 2, 79, 60
4, 3840, Note_off_c, 2, 79, 60
4, 7500, Note_on_c, 2, 81, 60
4, 7980, Note_off_c, 2, 81, 60
4, 16020, Note_on_c, 2, 66, 60
4, 16140, Note_off_c, 2, 66, 60
4, 16140, Note_on_c, 2, 67, 60
4, 16380, Note_off_c, 2, 67, 60
4, 16380, Note_on_c, 2, 66, 60
4, 16500, Note_off_c, 2, 66, 60
4, 16500, Note_on_c, 2, 67, 60
4, 16620, Note_off_c, 2, 67, 60
4, 17820, Note_on_c, 2, 69, 60
4, 18810, Note_off_c, 2, 69, 60
4, 25410, Note_on_c, 2, 64, 60
4, 25440, Note_off_c, 2, 64, 60
4, 32340, Note_on_c, 2, 62, 60
4, 32400, Note_off_c, 2, 62, 60
4, 39060, Note_on_c, 2, 71, 60
4, 39090, Note_off_c, 2, 71, 60
4, 45300, End_track
5, 0, Start_track
5, 0, Program_c, 3, 0
5, 39060, Note_on_c, 3, 74, 60
5, 39090, Note_off_c, 3, 74, 60
5, 45300, End_track
0, 0, End_of_file